<svg width="131" height="26" fill="none" xmlns="http://www.w3.org/2000/svg"><g clip-path="url('#clip0_1038_1160')"><path d="M97.816 6.425c1.02.002 1.944.133 2.775.394.831.26 1.532.597 2.103 1.01.358.25.639.528.844.832.205.304.307.698.306 1.18l-.016 9.387-.005.255c-.031.84-.209 1.572-.535 2.198a4.931 4.931 0 0 1-1.465 1.713c-.617.455-1.342.79-2.174 1.002-.831.213-1.721.32-2.669.318-1.627-.003-2.904-.224-3.833-.664-.93-.44-1.393-1.151-1.391-2.134 0-.412.086-.773.256-1.086.17-.313.363-.55.578-.71.518.287 1.103.53 1.755.727a6.979 6.979 0 0 0 2.025.299c.965.002 1.734-.158 2.307-.479.572-.32.86-.839.86-1.554l.001-.429-.204.083c-.693.265-1.52.397-2.478.395a7.207 7.207 0 0 1-2.293-.366 5.13 5.13 0 0 1-1.902-1.13c-.544-.51-.981-1.168-1.31-1.973-.33-.805-.493-1.761-.492-2.87.002-1.09.178-2.038.528-2.842.35-.804.834-1.469 1.452-1.995.617-.527 1.351-.919 2.2-1.176.85-.258 1.776-.386 2.777-.385ZM25.63 6.72c1.594.003 2.898.363 3.912 1.08 1.014.717 1.612 1.982 1.796 3.794l-3.406-.005-.033-.2a2.918 2.918 0 0 0-.444-1.084c-.372-.514-.95-.772-1.736-.773-1.12-.002-1.887.553-2.301 1.664-.22.59-.33 1.376-.331 2.356-.002.933.106 1.684.323 2.252.395 1.058 1.14 1.589 2.237 1.59.778.002 1.33-.207 1.658-.627.327-.42.526-.963.597-1.632l3.395.006-.023.232c-.115.925-.474 1.804-1.078 2.636-1.045 1.452-2.59 2.177-4.636 2.174-2.045-.004-3.549-.613-4.511-1.828-.962-1.215-1.442-2.79-1.439-4.727.004-2.186.54-3.884 1.607-5.096 1.068-1.211 2.539-1.815 4.413-1.812Zm30.897.018c1.058.001 2.01.201 2.857.6.847.397 1.546 1.025 2.097 1.881.496.755.818 1.63.964 2.627.084.583.118 1.423.1 2.52l-8.703-.015.012.221c.081 1.159.476 1.98 1.186 2.464.458.32 1.01.48 1.655.481.685.001 1.241-.192 1.67-.58.233-.21.44-.501.62-.874l3.394.006-.025.174c-.124.698-.51 1.405-1.157 2.122-1.09 1.235-2.616 1.85-4.576 1.847-1.618-.003-3.044-.526-4.279-1.57-1.235-1.045-1.85-2.741-1.846-5.09.003-2.201.564-3.888 1.682-5.06 1.119-1.173 2.568-1.757 4.349-1.754ZM79.88 2.104c.393 0 .746.028 1.06.082.312.055.575.162.79.324.214.16.379.38.495.657.115.278.173.64.172 1.087l-.026 15.554-.09.016c-.192.034-.453.077-.782.13a7.26 7.26 0 0 1-2.226.01 1.805 1.805 0 0 1-.79-.323 1.55 1.55 0 0 1-.496-.658c-.115-.278-.173-.64-.172-1.087l.026-15.554.09-.016c.192-.034.453-.077.782-.13a7.249 7.249 0 0 1 1.167-.092Zm6.845 4.651c.394 0 .747.028 1.06.082.312.055.576.162.79.324.214.16.38.38.495.658.116.277.173.639.172 1.086l-.018 10.915-.09.016c-.192.033-.453.077-.782.13a7.248 7.248 0 0 1-2.226.01 1.805 1.805 0 0 1-.79-.324 1.548 1.548 0 0 1-.495-.658c-.116-.277-.174-.64-.173-1.086l.019-10.915.09-.016c.191-.033.452-.077.781-.13a7.249 7.249 0 0 1 1.167-.092Zm21.357-4.603c.394 0 .747.028 1.059.082.313.055.577.162.791.324.214.16.379.38.495.657.116.278.173.64.172 1.087l-.004 2.628.093-.034c.23-.08.552-.172.967-.273a6.586 6.586 0 0 1 1.569-.171c1.77.003 3.15.448 4.141 1.334.991.887 1.485 2.206 1.482 3.958l-.014 8.126-.083.023a7.344 7.344 0 0 1-.762.136 8.64 8.64 0 0 1-1.194.079 6.31 6.31 0 0 1-1.059-.082 1.799 1.799 0 0 1-.79-.323 1.537 1.537 0 0 1-.495-.658c-.116-.278-.174-.64-.173-1.087l.01-5.953-.003-.166c-.025-.645-.206-1.104-.544-1.377-.366-.296-.817-.444-1.354-.445-.357 0-.697.043-1.019.132a2.912 2.912 0 0 0-.778.32l-.016 9.387-.083.023a7.218 7.218 0 0 1-.762.136 8.63 8.63 0 0 1-1.194.079 6.31 6.31 0 0 1-1.059-.082 1.8 1.8 0 0 1-.79-.324 1.536 1.536 0 0 1-.495-.657c-.116-.278-.174-.64-.173-1.087l.027-15.554.09-.016c.191-.034.452-.077.782-.13a7.238 7.238 0 0 1 1.166-.092Zm-32.108 1.42.062.104c.1.183.19.412.272.688.098.331.146.675.146 1.033-.001.697-.15 1.193-.445 1.487-.296.295-.694.442-1.194.44l-5.632-.009-.005 3.03 5.873.01.07.104c.112.182.21.407.29.675.098.322.147.662.146 1.02 0 .679-.15 1.166-.445 1.46-.295.295-.693.441-1.194.44l-4.693-.007-.01 5.658-.09.023a8.74 8.74 0 0 1-.835.136c-.42.053-.836.08-1.247.079-.411 0-.773-.033-1.086-.096a1.929 1.929 0 0 1-.79-.337 1.448 1.448 0 0 1-.482-.67c-.107-.287-.16-.663-.16-1.127l.02-11.666.006-.189c.035-.68.258-1.224.668-1.633.448-.447 1.056-.669 1.825-.668l8.93.015Zm-63.03-1.028-.004 3.022-8.621-.015-.007 3.955 7.548.013-.005 2.986-7.548-.013-.013 7.21-3.57-.006.03-17.172 12.19.02Zm4.864 4.465-.022 12.716-3.372-.006.022-12.716 3.372.006Zm18.38-4.39-.015 9.263 4.15-4.776 4.118.007-4.453 4.857 4.606 7.8-4.013-.006-3.036-5.442-1.379 1.433-.006 4.001-3.267-.005.03-17.138 3.266.006Zm12.77-.037-.03 17.196-3.325-.006.03-17.195 3.324.005Zm70.151.954c.557-.167 1.509-.203 2.621.292 1.123.499 1.823 1.352 2.099 2.561l6.033.523c.075.005.149.02.223.046.111.039.17.094.22.137.123.105.162.186.22.331a.862.862 0 0 1-.064.77c-.218.335-.56.552-1.025.65l-4.872 1.027.853 4.047c.097.464.315.764.651.898.336.135.772.145 1.308.033.268-.057.54-.138.817-.243.276-.105.514-.215.713-.332.203.163.387.352.554.569.167.217.287.495.358.834.265 1.255-1.712 2.437-3.007 2.667-1.199.214-3.038.39-4.085-2.367a280.89 280.89 0 0 1-3.944-11.226c-.108-.332-.175-.658-.058-.927.064-.145.11-.208.385-.29ZM98.025 9.993c-.877-.002-1.534.243-1.973.734-.439.49-.659 1.192-.66 2.104-.002 1.037.216 1.784.653 2.24.437.457.995.686 1.675.687.733.001 1.314-.168 1.744-.507l.008-4.934-.082-.043a3.194 3.194 0 0 0-.467-.173 3.206 3.206 0 0 0-.898-.108Zm-41.503-.515c-.77-.001-1.367.239-1.792.72-.424.482-.692 1.135-.802 1.959l5.168.009c-.053-.88-.318-1.547-.796-2.002-.477-.456-1.07-.685-1.778-.686ZM17.815 2.424l-.005 3.068-3.371-.005.005-3.068 3.371.005ZM86.977.775c.75.002 1.354.235 1.809.7.455.466.682 1.039.68 1.718 0 .68-.23 1.251-.686 1.715-.457.464-1.06.696-1.811.694-.751 0-1.354-.234-1.81-.7-.455-.465-.682-1.038-.68-1.717 0-.68.23-1.251.686-1.716.457-.464 1.06-.695 1.812-.694Z" fill="url('#paint0_linear_1038_1160')"/></g><defs><linearGradient id="paint0_linear_1038_1160" x1="121.151" y1="12.509" x2="1.909" y2="24.442" gradientUnits="userSpaceOnUse"><stop stop-color="#299BD8"/><stop offset="1" stop-color="#1262AF"/></linearGradient><clipPath id="clip0_1038_1160"><path fill="#fff" transform="rotate(.097 -138.267 445.585)" d="M0 0h130.072v24.669H0z"/></clipPath></defs></svg>