<svg width="53" height="50" fill="none" xmlns="http://www.w3.org/2000/svg"><path d="M.42 12.556C.43 5.95 5.795.604 12.4.616l28.407.048c6.606.011 11.952 5.375 11.94 11.98l-.042 24.959c-.011 6.605-5.375 11.951-11.981 11.94l-28.406-.048C5.712 49.484.366 44.12.378 37.514L.42 12.556Z" fill="#4DABFF"/><path d="M34.726 18.418c-.235-.643-.894-1.102-1.671-1.104l-2.945-.005.001-1.09c.002-.6-.528-1.09-1.176-1.092l-4.712-.008c-.648-.001-1.179.489-1.18 1.088l-.002 1.09-2.945-.005c-.777 0-1.426.456-1.675 1.099l-2.331 6.177c-.083.229-.13.468-.13.72l-.014 7.805c-.002.905.786 1.636 1.764 1.638.978.002 1.769-.727 1.77-1.632l.001-.545 14.137.024-.001.545c-.002.894.786 1.636 1.764 1.638.966.002 1.769-.727 1.77-1.632l.013-7.806c0-.24-.046-.49-.128-.72l-2.31-6.185Zm-14.65 10.866c-.978-.002-1.766-.733-1.765-1.638.002-.905.792-1.634 1.77-1.632.978.001 1.766.733 1.765 1.638-.002.905-.793 1.634-1.77 1.632Zm12.958.022c-.977-.001-1.765-.733-1.764-1.638.002-.905.792-1.634 1.77-1.632.978.001 1.766.733 1.764 1.638-.001.905-.792 1.634-1.77 1.632ZM18.318 23.83l1.775-4.902 12.959.022 1.759 4.908-16.493-.028Z" fill="#fff"/></svg>