<svg width="50" height="50" fill="none" xmlns="http://www.w3.org/2000/svg"><path d="M.231 12.94C.242 6.334 5.606.988 12.212 1l24.958.042c6.606.011 11.952 5.375 11.94 11.98l-.042 24.959c-.011 6.605-5.375 11.951-11.981 11.94l-24.958-.042C5.523 49.867.177 44.503.189 37.898L.23 12.94Z" fill="#FF9B53"/><path d="M28.859 14.515a2.64 2.64 0 0 0-1.856-.764 2.64 2.64 0 0 0-1.858.758L13.593 25.916a2.6 2.6 0 0 0-.772 1.838 2.58 2.58 0 0 0 .766 1.841l1.366 1.357c.594.592 1.431.488 1.937.19a1.47 1.47 0 0 1 1.777.224 1.44 1.44 0 0 1 .22 1.761c-.301.5-.41 1.33.186 1.92l1.366 1.358a2.629 2.629 0 0 0 1.857.765 2.646 2.646 0 0 0 1.858-.759l11.551-11.404a2.601 2.601 0 0 0 .773-1.839 2.582 2.582 0 0 0-.767-1.84l-1.364-1.359c-.595-.59-1.433-.488-1.94-.19a1.47 1.47 0 0 1-1.776-.224 1.44 1.44 0 0 1-.22-1.76c.302-.501.41-1.33-.185-1.92l-1.366-1.36h-.001Z" fill="#fff"/></svg>