<svg width="50" height="50" fill="none" xmlns="http://www.w3.org/2000/svg"><path d="M.936 12.352C.947 5.747 6.311.401 12.917.412l24.958.043c6.606.01 11.952 5.375 11.94 11.98l-.042 24.959c-.011 6.605-5.375 11.951-11.981 11.94l-24.958-.043C6.228 49.282.882 43.916.894 37.311l.042-24.959Z" fill="#FDBF00"/><path d="M15.283 30.816a3.705 3.705 0 0 0 1.253 2.768l-.003 1.595a1.875 1.875 0 0 0 1.884 1.872 1.875 1.875 0 0 0 1.89-1.866v-.622l10.061.017v.623a1.883 1.883 0 0 0 1.883 1.872c1.03.002 1.888-.832 1.89-1.866l.002-1.595a3.705 3.705 0 0 0 1.262-2.763l.021-12.46c.008-4.36-4.493-4.99-10.052-5-5.559-.01-10.062.606-10.07 4.966l-.02 12.46Zm4.4 1.254a1.875 1.875 0 0 1-1.884-1.872 1.875 1.875 0 0 1 1.89-1.866 1.875 1.875 0 0 1 1.883 1.872 1.875 1.875 0 0 1-1.89 1.866ZM31 32.089a1.875 1.875 0 0 1-1.883-1.872 1.875 1.875 0 0 1 1.89-1.866 1.875 1.875 0 0 1 1.883 1.872 1.875 1.875 0 0 1-1.89 1.866Zm1.9-7.472-15.092-.026.01-6.23 15.092.026-.01 6.23Z" fill="#fff"/></svg>