<svg width="50" height="50" fill="none" xmlns="http://www.w3.org/2000/svg"><path d="M.628 12.762C.638 6.156 6.003.81 12.608.822l24.959.042c6.605.011 11.951 5.375 11.94 11.981l-.043 24.958c-.01 6.606-5.375 11.952-11.98 11.94l-24.959-.042C5.92 49.69.574 44.326.585 37.72l.043-24.958Z" fill="#79CA00"/><path d="m32.868 16.595-15.615-.027a1.945 1.945 0 0 0-1.954 1.93l-.024 13.535a1.945 1.945 0 0 0 1.949 1.937l15.614.027a1.945 1.945 0 0 0 1.955-1.93l.023-13.535a1.945 1.945 0 0 0-1.948-1.937Zm-.01 5.8h-.453l-2.596-3.872 3.055.005-.005 3.867Zm-4.402 5.793-5.372 2.892.01-5.801 5.362 2.91Zm-.93-5.802-2.596-3.871 2.533.004 2.596 3.872-2.534-.005Zm-2.346-.004-2.534-.004-2.596-3.872 2.533.005 2.597 3.871Zm-7.93-3.88h.454l2.596 3.872-3.056-.005.006-3.867Z" fill="#fff"/></svg>