<svg width="368" height="496" fill="none" xmlns="http://www.w3.org/2000/svg"><g clip-path="url('#clip0_2702_4406')"><g clip-path="url('#clip1_2702_4406')"><path d="M274.081 443.127c2.873.005 5.481.373 7.824 1.103s4.32 1.673 5.931 2.827c1.007.703 1.8 1.481 2.378 2.334.578.852.866 1.954.864 3.307l-.045 26.296-.014.715c-.087 2.354-.59 4.406-1.51 6.158a13.842 13.842 0 0 1-4.129 4.801c-1.741 1.274-3.785 2.21-6.13 2.807-2.345.597-4.853.894-7.525.889-4.587-.008-8.19-.628-10.809-1.859-2.619-1.232-3.927-3.225-3.922-5.98.002-1.152.243-2.166.723-3.042.481-.875 1.024-1.538 1.63-1.988 1.46.804 3.11 1.483 4.949 2.037 1.839.554 3.741.833 5.707.836 2.722.005 4.891-.442 6.505-1.341 1.615-.899 2.424-2.35 2.427-4.354l.002-1.202-.575.234c-1.955.742-4.284 1.11-6.988 1.106-2.269-.004-4.423-.346-6.463-1.026a14.47 14.47 0 0 1-5.364-3.164c-1.535-1.43-2.767-3.273-3.695-5.529-.929-2.255-1.391-4.936-1.386-8.041.006-3.056.502-5.71 1.488-7.962.987-2.252 2.351-4.116 4.093-5.591 1.742-1.474 3.81-2.573 6.206-3.295 2.396-.722 5.005-1.081 7.828-1.076Zm-203.533.82c4.496.008 8.172 1.016 11.03 3.026 2.859 2.009 4.547 5.553 5.065 10.631l-9.605-.016-.091-.562a8.144 8.144 0 0 0-1.252-3.036c-1.05-1.44-2.682-2.162-4.897-2.166-3.158-.005-5.32 1.549-6.488 4.663-.617 1.655-.928 3.855-.932 6.601-.005 2.615.299 4.718.91 6.309 1.114 2.966 3.216 4.451 6.308 4.456 2.193.004 3.75-.582 4.674-1.757.923-1.175 1.485-2.699 1.685-4.573l9.572.017-.066.65c-.322 2.593-1.335 5.054-3.04 7.385-2.945 4.069-7.301 6.099-13.069 6.089-5.767-.01-10.007-1.716-12.72-5.12-2.714-3.404-4.066-7.818-4.057-13.244.01-6.123 1.521-10.881 4.531-14.275s7.157-5.087 12.442-5.078Zm87.116.05c2.982.005 5.668.566 8.056 1.681 2.388 1.115 4.359 2.873 5.912 5.272 1.4 2.116 2.306 4.569 2.717 7.359.239 1.634.334 3.988.285 7.06l-24.539-.042.033.62c.229 3.245 1.343 5.546 3.342 6.903 1.293.896 2.849 1.345 4.669 1.348 1.93.004 3.499-.539 4.707-1.626.658-.587 1.241-1.403 1.747-2.448l9.572.016-.072.488c-.349 1.955-1.436 3.937-3.261 5.945-3.076 3.459-7.377 5.184-12.903 5.175-4.561-.008-8.583-1.475-12.064-4.4-3.482-2.926-5.217-7.679-5.206-14.259.01-6.167 1.592-10.892 4.744-14.177 3.152-3.285 7.239-4.923 12.261-4.915Zm65.845-12.977c1.109.002 2.104.078 2.986.23.882.152 1.625.454 2.229.906.605.451 1.07 1.066 1.396 1.843.326.777.489 1.791.486 3.043l-.074 43.578-.254.044c-.54.095-1.275.216-2.204.365-1.084.173-2.18.259-3.289.257-1.109-.002-2.105-.079-2.987-.23-.882-.152-1.625-.454-2.229-.906-.604-.452-1.069-1.066-1.396-1.843-.326-.777-.488-1.791-.486-3.044l.074-43.577.254-.045c.54-.094 1.275-.215 2.204-.364a20.61 20.61 0 0 1 3.29-.257Zm19.301 13.031c1.109.001 2.104.078 2.986.23.882.152 1.625.454 2.229.905.604.452 1.069 1.067 1.396 1.844.326.777.488 1.791.486 3.043l-.052 30.579-.254.045c-.54.094-1.275.216-2.204.365a20.61 20.61 0 0 1-3.29.257c-1.109-.002-2.104-.079-2.986-.231-.882-.151-1.625-.453-2.229-.905-.604-.452-1.07-1.066-1.396-1.843-.326-.777-.488-1.792-.486-3.044l.052-30.579.254-.045c.54-.094 1.275-.215 2.204-.364a20.494 20.494 0 0 1 3.29-.257Zm60.217-12.896c1.109.002 2.104.079 2.986.23.882.152 1.625.454 2.229.906.605.452 1.07 1.066 1.396 1.843.327.777.489 1.791.486 3.044l-.012 7.363.262-.095c.648-.227 1.557-.481 2.726-.764 1.337-.324 2.811-.484 4.424-.481 4.991.008 8.883 1.255 11.676 3.739 2.794 2.484 4.186 6.18 4.178 11.089l-.039 22.766-.234.064c-.503.127-1.219.255-2.148.382a24.39 24.39 0 0 1-3.365.22c-1.109-.002-2.105-.079-2.987-.231-.882-.151-1.625-.453-2.229-.905-.604-.452-1.069-1.066-1.396-1.843-.326-.777-.488-1.792-.486-3.044l.028-16.679-.008-.463c-.07-1.809-.582-3.096-1.534-3.86-1.032-.828-2.304-1.244-3.817-1.246a10.78 10.78 0 0 0-2.874.37c-.907.249-1.639.549-2.194.898l-.045 26.297-.234.064c-.503.128-1.219.255-2.148.383a24.549 24.549 0 0 1-3.365.219c-1.109-.002-2.105-.078-2.987-.23-.882-.152-1.625-.454-2.229-.906-.604-.451-1.069-1.066-1.396-1.843-.326-.777-.488-1.791-.486-3.043l.074-43.578.254-.044c.54-.095 1.275-.216 2.204-.365a20.61 20.61 0 0 1 3.29-.257Zm-90.53 3.978.173.292c.282.512.538 1.154.768 1.926.276.927.413 1.892.411 2.894-.003 1.953-.421 3.342-1.255 4.167-.833.825-1.955 1.237-3.367 1.234l-15.878-.027-.015 8.49 16.56.029.195.29c.318.508.592 1.138.822 1.89.275.902.412 1.854.411 2.856-.004 1.903-.422 3.268-1.255 4.093-.833.825-1.955 1.236-3.367 1.234l-13.232-.023-.027 15.853-.257.064c-.553.128-1.337.255-2.353.382a27.776 27.776 0 0 1-3.516.22c-1.16-.002-2.18-.091-3.062-.268-.882-.177-1.625-.491-2.229-.943-.604-.452-1.057-1.079-1.358-1.881-.301-.802-.45-1.854-.448-3.156l.055-32.683.014-.529c.1-1.905.728-3.431 1.885-4.577 1.263-1.25 2.978-1.873 5.145-1.87l25.18.043Zm-177.716-2.882-.014 8.465-24.308-.041-.019 11.08 21.282.036-.014 8.367-21.282-.036-.034 20.198-10.066-.017.082-48.111 34.373.059Zm13.712 12.508-.061 35.626-9.506-.016.06-35.626 9.507.016Zm51.826-12.299-.044 25.951 11.7-13.38 11.611.02-12.555 13.608 12.988 21.855-11.315-.02-8.559-15.245-3.888 4.014-.02 11.21-9.21-.016.082-48.012 9.21.015Zm36.001-.102-.082 48.176-9.374-.016.082-48.176 9.374.016Zm197.798 2.673c1.571-.467 4.253-.567 7.391.818 3.167 1.398 5.139 3.791 5.918 7.177l17.01 1.466c.211.012.42.055.629.128.312.109.48.263.62.383.345.295.457.523.621.929.291.724.201 1.574-.181 2.157-.616.939-1.579 1.546-2.889 1.82l-13.74 2.878 2.405 11.338c.277 1.301.889 2.14 1.837 2.517.948.376 2.177.406 3.689.09a15.545 15.545 0 0 0 2.302-.679 13.37 13.37 0 0 0 2.013-.931c.57.456 1.09.987 1.561 1.595.471.607.807 1.386 1.009 2.337.746 3.516-4.827 6.827-8.477 7.472-3.381.598-8.568 1.09-11.519-6.632-2.951-7.722-7.586-20.665-11.122-31.451-.305-.931-.493-1.845-.162-2.598.179-.408.309-.583 1.085-.814Zm-59.449 18.09c-2.47-.004-4.324.681-5.561 2.056-1.238 1.376-1.859 3.341-1.863 5.895-.005 2.905.609 4.998 1.842 6.277s2.807 1.921 4.723 1.924c2.066.003 3.705-.47 4.917-1.419l.023-13.825-.231-.12a9.003 9.003 0 0 0-1.318-.483c-.68-.202-1.524-.304-2.532-.305Zm-117.018-1.443c-2.171-.004-3.855.669-5.052 2.018-1.198 1.349-1.952 3.178-2.263 5.487l14.572.025c-.15-2.463-.898-4.332-2.244-5.609-1.346-1.277-3.017-1.918-5.013-1.921ZM48.514 431.915l-.014 8.596-9.506-.017.014-8.595 9.506.016Zm195.005-4.618c2.117.004 3.817.658 5.1 1.962 1.283 1.305 1.923 2.909 1.92 4.812-.003 1.903-.649 3.505-1.936 4.805-1.288 1.3-2.99 1.949-5.107 1.945-2.118-.004-3.818-.658-5.101-1.962-1.283-1.305-1.923-2.909-1.92-4.812.003-1.903.649-3.505 1.936-4.805 1.288-1.3 2.99-1.949 5.108-1.945Z" fill="#fff"/></g></g><defs><clipPath id="clip0_2702_4406"><path fill="#fff" transform="rotate(.097 -51.672 672.103)" d="M0 0h366.746v494.808H0z"/></clipPath><clipPath id="clip1_2702_4406"><path fill="#fff" transform="rotate(.097 -250309.277 459.253)" d="M0 0h366.746v69.113H0z"/></clipPath></defs></svg>