<svg width="89" height="19" fill="none" xmlns="http://www.w3.org/2000/svg"><path stroke="#CCC" stroke-width=".748" stroke-dasharray="2.24 2.24" d="m4.427 8.949 77.409.132"/><path d="m43.72 16.43-1.02-.001a.66.66 0 0 1-.294-.07.595.595 0 0 1-.221-.188.528.528 0 0 1-.043-.535l2.48-4.98-3.71-.082-1.357 1.496c-.258.296-.465.428-.99.427l-.687-.001a.733.733 0 0 1-.315-.061.669.669 0 0 1-.248-.188.585.585 0 0 1-.093-.575l.764-2.486a.61.61 0 0 1 .02-.06.49.49 0 0 1-.02-.057l-.756-2.505a.575.575 0 0 1 .1-.562.636.636 0 0 1 .23-.174c.09-.04.19-.061.291-.06l.726.001c.392 0 .772.162.996.422l1.323 1.476 3.732-.044-2.463-4.98a.519.519 0 0 1 .044-.535.596.596 0 0 1 .222-.188.66.66 0 0 1 .293-.068l1.032.001c.144.003.286.036.414.095.128.06.24.145.328.25l4.785 5.334 2.216-.049c.162-.008.611-.01.715-.01 2.12.005 3.383.636 3.382 1.69 0 .33-.147.945-1.117 1.334-.573.23-1.337.346-2.271.345-.103 0-.551-.004-.716-.012l-2.214-.058-4.816 5.318a.945.945 0 0 1-.329.247 1.03 1.03 0 0 1-.413.093Z" fill="#1262AE"/><circle cx="4.62" cy="9.323" r="2.99" transform="rotate(.097 4.62 9.323)" fill="#fff" stroke="#1262AE" stroke-width="1.495"/><circle cx="84.869" cy="9.148" r="2.99" transform="rotate(.097 84.87 9.148)" fill="#fff" stroke="#1262AE" stroke-width="1.495"/></svg>