<svg width="50" height="50" fill="none" xmlns="http://www.w3.org/2000/svg"><rect x="1.03" y=".769" width="48.879" height="48.879" rx="11.961" transform="rotate(.097 1.03 .77)" fill="#F9668D"/><path d="m24.578 21.857 1.713.003.001-.848c0-.225.09-.44.252-.599a.86.86 0 0 1 .605-.247l2.569.004a.86.86 0 0 1 .604.25c.16.159.25.375.25.6l-.001.848 3.424.005.006-3.392a3.376 3.376 0 0 0-1-2.4 3.44 3.44 0 0 0-2.419-.997l-10.272-.018a3.441 3.441 0 0 0-2.423.99 3.376 3.376 0 0 0-1.007 2.396l-.006 3.392 3.424.006.002-.848c0-.225.09-.44.252-.6a.86.86 0 0 1 .605-.247l2.568.005a.86.86 0 0 1 .605.25c.16.159.25.374.25.6l-.002.847ZM17.728 23.542a4.3 4.3 0 0 0-3.029 1.236 4.22 4.22 0 0 0-1.258 2.996l-.012 6.784c0 .225.09.441.25.6a.86.86 0 0 0 1.21.002.844.844 0 0 0 .252-.599l.007-4.24 20.544.035-.008 4.24c0 .225.09.44.25.6a.86.86 0 0 0 1.21.002.844.844 0 0 0 .252-.599l.012-6.784a4.22 4.22 0 0 0-1.248-3 4.3 4.3 0 0 0-3.025-1.247l-15.407-.026Z" fill="#fff"/></svg>