<svg width="50" height="50" fill="none" xmlns="http://www.w3.org/2000/svg"><rect x=".473" y=".189" width="48.879" height="48.879" rx="11.961" transform="rotate(.097 .473 .189)" fill="#36DA76"/><path d="M31.185 34.208c-.04-.878-.093-1.75-.135-2.62-.136-2.725-.12-5.488-.262-8.225-.143-2.717-.05-5.435-.124-8.151-.014-.565.013-1.68-.57-2.002-1.256-.694-2.006 1.19-2.327 1.958-.578 1.392-.914 2.857-1.328 4.3-.353 1.236-.754 2.467-.892 3.746-.102.96-.094 2.035.406 2.9.25.436.686.732 1.181.858.515.133 1.104-.039 1.591.195a.62.62 0 0 1 .287.315c.158.412.007 1.035-.043 1.46-.16 1.366-.327 2.747-.404 4.12-.045.83-.096 1.895.406 2.62.307.44.93.85 1.494.633.843-.32.753-1.41.72-2.107ZM20.51 13.8c-.242.096-.152.961-.163 1.227-.017.478.014 1.11-.044 1.728l-.002.013-.016.139c-.008.047-.016.093-.022.14-.052.301-.15.658-.337.83-.21.195-.683.153-.846-.08-.268-.376-.246-1.218-.263-1.242a37.658 37.658 0 0 0-.151-2.396c-.008-.06-.019-.42-.347-.459-.153-.017-.314.114-.367.352-.156.703-.302 2.044-.312 2.255a.82.82 0 0 0-.003.065v.005c-.001.044-.055 1.095-.322 1.457-.139.19-.5.338-.858.137-.143-.082-.24-.238-.31-.405-.372-1.168-.034-2.453.015-3.066.015-.172.172-.747-.176-.728-.525.027-1.205 2.26-1.327 2.771-.299 1.273-.346 2.634.168 3.864.285.68.845 1.238 1.54 1.51a4.56 4.56 0 0 0 1.01.255c-.135 2.895-.287 5.917-.425 7.598-.106 1.265-.23 2.545-.216 3.815.009.76 0 1.665.497 2.302.52.666 1.62.362 1.918-.423.335-.886.24-1.918.129-3.545-.111-1.628-.236-3.85-.304-5.045-.1-1.76-.134-3.297-.142-4.7.927-.131 1.79-.527 2.275-1.257a3.43 3.43 0 0 0 .45-1.043c.146-.556.219-1.166.188-1.74-.031-.529-.459-4.645-1.237-4.334Z" fill="#fff"/></svg>