<svg width="132" height="26" fill="none" xmlns="http://www.w3.org/2000/svg"><g clip-path="url('#clip0_1038_1489')"><path d="M98.026 6.647c1.02.002 1.944.133 2.775.394.831.26 1.532.597 2.104 1.009.357.25.638.528.843.833.205.304.307.697.306 1.18l-.016 9.386-.005.255c-.031.84-.209 1.573-.535 2.198a4.932 4.932 0 0 1-1.465 1.714c-.617.455-1.342.789-2.174 1.002a10.65 10.65 0 0 1-2.668.317c-1.627-.002-2.905-.224-3.834-.663-.93-.44-1.393-1.151-1.391-2.135 0-.41.086-.773.256-1.085.17-.313.363-.55.578-.71.518.287 1.103.53 1.755.727a6.975 6.975 0 0 0 2.025.298c.965.002 1.734-.158 2.307-.478.573-.321.86-.84.86-1.554l.001-.43-.204.084c-.693.265-1.52.396-2.478.395a7.204 7.204 0 0 1-2.293-.366 5.13 5.13 0 0 1-1.902-1.13c-.544-.51-.98-1.168-1.31-1.973-.33-.805-.493-1.762-.492-2.87.002-1.091.178-2.038.528-2.842.35-.804.834-1.47 1.452-1.996.617-.526 1.351-.918 2.2-1.176.85-.258 1.776-.386 2.777-.384Zm-72.186.294c1.595.002 2.898.362 3.912 1.08 1.014.717 1.613 1.982 1.796 3.794l-3.406-.006-.033-.2a2.919 2.919 0 0 0-.443-1.084c-.373-.514-.952-.771-1.737-.773-1.12-.002-1.887.553-2.301 1.665-.22.59-.33 1.376-.331 2.356-.002.933.106 1.684.323 2.252.395 1.058 1.14 1.588 2.237 1.59.778.001 1.33-.208 1.658-.627.327-.42.526-.964.597-1.632l3.395.005-.023.233c-.115.925-.474 1.804-1.078 2.635-1.045 1.453-2.59 2.178-4.635 2.174-2.046-.003-3.55-.613-4.512-1.827-.962-1.215-1.442-2.791-1.439-4.728.004-2.185.54-3.884 1.607-5.095 1.068-1.211 2.539-1.816 4.413-1.812Zm30.897.017c1.058.002 2.01.202 2.857.6.847.398 1.546 1.025 2.097 1.882.496.755.818 1.63.964 2.626.084.584.118 1.424.1 2.52l-8.702-.014.011.22c.081 1.159.477 1.98 1.186 2.465.458.32 1.01.48 1.655.48.685.002 1.241-.191 1.67-.58.233-.21.44-.5.62-.873l3.394.005-.025.174c-.124.698-.51 1.406-1.157 2.122-1.09 1.235-2.616 1.85-4.576 1.848-1.618-.003-3.044-.527-4.279-1.571-1.235-1.044-1.85-2.74-1.846-5.09.004-2.2.564-3.887 1.682-5.06 1.119-1.172 2.568-1.757 4.35-1.754ZM80.09 2.326c.393 0 .746.028 1.06.082.312.054.575.162.79.323.214.161.379.38.495.658.115.277.173.64.172 1.086l-.026 15.555-.09.016c-.192.033-.453.076-.782.13a7.26 7.26 0 0 1-2.226.01 1.805 1.805 0 0 1-.79-.324 1.547 1.547 0 0 1-.495-.658c-.116-.277-.174-.64-.173-1.086l.026-15.554.09-.016c.192-.034.453-.077.782-.13a7.248 7.248 0 0 1 1.167-.092Zm6.845 4.65c.394.001.747.029 1.06.083.312.054.576.162.79.323.214.161.38.38.495.658.116.277.173.64.172 1.086l-.018 10.915-.09.016c-.192.034-.452.077-.782.13a7.236 7.236 0 0 1-2.226.01 1.805 1.805 0 0 1-.79-.323 1.548 1.548 0 0 1-.495-.658c-.116-.277-.174-.64-.173-1.087l.019-10.914.09-.016c.191-.034.452-.077.782-.13a7.248 7.248 0 0 1 1.166-.092Zm21.357-4.602c.394 0 .747.028 1.059.082.313.054.577.162.791.323.214.161.379.38.495.658.116.277.173.64.173 1.086l-.005 2.628.093-.034c.23-.08.552-.171.967-.272a6.586 6.586 0 0 1 1.569-.172c1.77.003 3.15.448 4.141 1.335.991.886 1.485 2.206 1.482 3.958l-.014 8.126-.083.022a7.339 7.339 0 0 1-.762.137c-.385.053-.782.08-1.194.078a6.31 6.31 0 0 1-1.059-.082 1.8 1.8 0 0 1-.79-.323 1.537 1.537 0 0 1-.495-.658c-.116-.277-.174-.64-.173-1.086l.01-5.954-.003-.165c-.025-.646-.206-1.105-.544-1.378-.366-.295-.817-.444-1.353-.444-.358-.001-.698.043-1.02.132a2.912 2.912 0 0 0-.778.32l-.016 9.386-.083.023a7.218 7.218 0 0 1-.762.137c-.384.053-.782.08-1.193.078-.394 0-.747-.028-1.06-.082a1.805 1.805 0 0 1-.79-.323 1.551 1.551 0 0 1-.495-.658c-.116-.277-.173-.64-.173-1.086l.027-15.554.09-.016c.191-.034.452-.077.782-.13a7.238 7.238 0 0 1 1.166-.092Zm-32.108 1.42.062.104c.1.183.19.412.272.688.098.33.147.675.146 1.032-.001.698-.15 1.194-.445 1.488-.295.295-.694.441-1.194.44l-5.632-.01-.005 3.031 5.873.01.07.104c.112.181.21.406.29.675.099.322.147.661.147 1.019-.002.68-.15 1.166-.445 1.46-.296.295-.694.442-1.195.441l-4.693-.008-.01 5.659-.09.023a8.74 8.74 0 0 1-.835.136c-.42.053-.836.08-1.247.078-.411 0-.773-.032-1.086-.095a1.929 1.929 0 0 1-.79-.337 1.448 1.448 0 0 1-.482-.671c-.107-.286-.16-.662-.159-1.127l.02-11.665.005-.19c.035-.68.258-1.224.668-1.633.448-.446 1.056-.668 1.825-.667l8.93.015Zm-63.03-1.028-.004 3.021-8.621-.014-.007 3.954 7.548.013-.005 2.987-7.548-.013-.012 7.21-3.57-.006.029-17.173 12.19.02Zm4.864 4.465-.022 12.716-3.371-.006.021-12.716 3.372.006Zm18.38-4.39-.015 9.262 4.15-4.776 4.118.007-4.453 4.857 4.606 7.801-4.013-.007-3.035-5.441-1.38 1.432-.006 4.002-3.267-.006.03-17.137 3.266.005Zm12.77-.037L49.137 20l-3.325-.006.03-17.196 3.324.006Zm70.151.953c.558-.167 1.509-.202 2.621.292 1.124.5 1.823 1.353 2.099 2.562l6.033.523c.075.004.149.02.223.045.111.04.17.094.22.137.123.106.162.187.22.332a.862.862 0 0 1-.064.77c-.218.335-.56.552-1.024.65l-4.873 1.027.853 4.046c.098.465.315.764.651.899.336.134.772.145 1.308.032.268-.056.54-.137.817-.242.276-.105.514-.216.714-.332.202.162.386.352.553.569.167.216.287.494.358.834.265 1.255-1.712 2.437-3.007 2.667-1.198.213-3.038.39-4.085-2.367a282.485 282.485 0 0 1-3.944-11.226c-.108-.332-.175-.659-.058-.928.064-.145.11-.208.385-.29Zm-21.084 6.457c-.876-.001-1.534.243-1.973.734-.439.491-.659 1.192-.66 2.104-.002 1.037.216 1.784.653 2.24.437.457.995.686 1.675.687.733.002 1.314-.167 1.744-.506l.008-4.935-.082-.043a3.193 3.193 0 0 0-.467-.172 3.21 3.21 0 0 0-.898-.109ZM56.732 9.7c-.77-.002-1.367.238-1.791.72-.425.481-.693 1.134-.803 1.958l5.168.01c-.053-.88-.318-1.547-.796-2.003-.477-.456-1.07-.684-1.778-.685ZM18.026 2.646l-.006 3.068-3.371-.006.005-3.068 3.372.006Zm69.16-1.65c.752.002 1.355.236 1.81.701.455.466.682 1.038.68 1.718 0 .68-.23 1.25-.686 1.715-.457.464-1.06.695-1.811.694-.751-.001-1.354-.235-1.81-.7-.454-.466-.681-1.038-.68-1.718 0-.68.23-1.25.686-1.715.457-.464 1.06-.695 1.812-.694Z" fill="#fff"/></g><defs><clipPath id="clip0_1038_1489"><path fill="#fff" transform="rotate(.097 -268.496 569.2)" d="M0 0h130.072v24.669H0z"/></clipPath></defs></svg>