<svg width="19" height="19" fill="none" xmlns="http://www.w3.org/2000/svg"><path d="M16.95 14.033a7.18 7.18 0 0 1-1.248-1.463 6.295 6.295 0 0 1-.668-2.398l.004-2.462a5.387 5.387 0 0 0-4.696-5.365l.001-.643a.665.665 0 1 0-1.33-.002l-.001.653a5.387 5.387 0 0 0-4.66 5.339l-.003 2.462a6.294 6.294 0 0 1-.677 2.396 7.176 7.176 0 0 1-1.234 1.458.498.498 0 0 0-.17.374v.677a.498.498 0 0 0 .497.5l13.854.023a.498.498 0 0 0 .5-.498v-.677a.498.498 0 0 0-.168-.374Zm-13.645.53a8.058 8.058 0 0 0 1.218-1.493c.482-.9.765-1.895.827-2.914l.005-2.462a4.356 4.356 0 1 1 8.706.015l-.004 2.461c.06 1.02.338 2.015.817 2.917.343.546.75 1.049 1.213 1.497l-12.782-.021ZM9.714 17.205a1.33 1.33 0 0 0 1.288-1.134l-2.622-.004a1.331 1.331 0 0 0 1.334 1.138Z" fill="#424242"/><circle cx="14.563" cy="4.224" r="2.616" transform="rotate(.097 14.563 4.224)" fill="#F99A0E" stroke="#fff" stroke-width=".748"/></svg>