<svg width="98" height="23" fill="none" xmlns="http://www.w3.org/2000/svg"><g clip-path="url('#clip0_1038_1495')"><path d="M12.033.525C6.088.515 1.26 5.326 1.25 11.271c-.01 5.945 4.801 10.773 10.746 10.783 5.945.01 10.773-4.8 10.783-10.746C22.79 5.363 17.978.535 12.033.525Zm2.537 7.443-1.618-.003c-.192 0-.405.252-.406.587l-.002 1.169 2.024.003-.309 1.666-1.718-.003-.008 5.002-1.91-.003.009-5.002-1.733-.003.003-1.666 1.733.002.001-.98c.003-1.406.98-2.547 2.319-2.544l1.618.002-.003 1.773Z" fill="#fff"/></g><g clip-path="url('#clip1_1038_1495')"><path d="M86.787.652C80.842.642 76.014 5.453 76.004 11.4c-.01 5.945 4.8 10.772 10.746 10.782 5.945.01 10.773-4.8 10.783-10.746C97.543 5.49 92.732.662 86.787.652Zm4.363 8.826c.005.092.006.184.006.273-.005 2.804-2.142 6.03-6.042 6.024a5.983 5.983 0 0 1-3.248-.959c.165.02.334.029.505.029a4.247 4.247 0 0 0 2.635-.903 2.125 2.125 0 0 1-1.978-1.474c.318.06.645.049.957-.036a2.12 2.12 0 0 1-1.698-2.081v-.026c.286.159.613.255.96.267a2.12 2.12 0 0 1-.65-2.833 6.03 6.03 0 0 0 4.366 2.224 2.12 2.12 0 0 1 3.616-1.928c.474-.093.93-.266 1.346-.513a2.13 2.13 0 0 1-.934 1.173 4.26 4.26 0 0 0 1.219-.333 4.3 4.3 0 0 1-1.06 1.096Z" fill="#fff"/></g><g clip-path="url('#clip2_1038_1495')"><path d="M52.755 11.359a3.364 3.364 0 0 1-6.727-.011c0-.192.02-.38.055-.561l-1.176-.002-.007 4.482c-.001.312.25.564.563.565l7.843.013a.564.564 0 0 0 .564-.563l.008-4.482-1.177-.002c.035.182.055.37.054.56Zm-3.367 2.237a2.24 2.24 0 0 0 2.246-2.24 2.244 2.244 0 1 0-2.246 2.24Zm2.699-4.593 1.344.002a.338.338 0 0 0 .338-.335l.002-1.345a.337.337 0 0 0-.337-.338l-1.344-.002a.337.337 0 0 0-.338.337l-.002 1.344c0 .185.152.337.337.337ZM49.41.589a10.765 10.765 0 1 0-.037 21.529A10.765 10.765 0 0 0 49.41.588Zm5.58 15.134a1.25 1.25 0 0 1-1.247 1.244l-8.722-.015a1.25 1.25 0 0 1-1.243-1.248l.014-8.721a1.25 1.25 0 0 1 1.248-1.244l8.722.015a1.25 1.25 0 0 1 1.243 1.248l-.014 8.721Z" fill="#fff"/></g><defs><clipPath id="clip0_1038_1495"><path fill="#fff" transform="rotate(.097 -33.291 482.382)" d="M0 0h22.426v22.426H0z"/></clipPath><clipPath id="clip1_1038_1495"><path fill="#fff" transform="rotate(.097 -70.646 44428.743)" d="M0 0h22.426v22.426H0z"/></clipPath><clipPath id="clip2_1038_1495"><path fill="#fff" transform="rotate(.097 -51.955 22455.564)" d="M0 0h22.426v22.426H0z"/></clipPath></defs></svg>