<svg width="14" height="14" fill="none" xmlns="http://www.w3.org/2000/svg"><path d="M12.84 5.42 9.11 4.827 7.45 1.17a.488.488 0 0 0-.213-.23c-.232-.125-.514-.022-.63.229L4.933 4.82l-3.73.58a.458.458 0 0 0-.27.148.532.532 0 0 0-.134.361.53.53 0 0 0 .142.358l2.694 2.85-.645 4.017a.546.546 0 0 0 .027.277.504.504 0 0 0 .159.22.44.44 0 0 0 .495.039l3.34-1.89 3.332 1.902c.091.053.197.07.298.051.256-.047.428-.309.385-.585l-.631-4.02 2.703-2.84a.523.523 0 0 0 .137-.29c.04-.279-.138-.536-.395-.578Z" fill="#FDBF00"/></svg>