<svg width="14" height="14" fill="none" xmlns="http://www.w3.org/2000/svg"><path d="M12.627 5.013 8.9 4.421 7.237.762a.488.488 0 0 0-.212-.23C6.793.406 6.51.51 6.395.76L4.72 4.413l-3.731.58a.458.458 0 0 0-.27.148.532.532 0 0 0-.133.361.53.53 0 0 0 .141.358l2.694 2.85-.644 4.017a.546.546 0 0 0 .027.278.504.504 0 0 0 .159.22.44.44 0 0 0 .495.039l3.339-1.892 3.333 1.903c.09.053.197.07.298.051.255-.047.428-.309.384-.585l-.63-4.02 2.703-2.84a.524.524 0 0 0 .137-.29c.04-.278-.139-.536-.396-.578Z" fill="#FDBF00"/></svg>