<svg width="13" height="14" fill="none" xmlns="http://www.w3.org/2000/svg"><path d="M12.264 5.234 8.536 4.64 6.874.983a.488.488 0 0 0-.212-.231c-.232-.124-.514-.021-.63.23L4.357 4.633l-3.731.58a.458.458 0 0 0-.27.147.532.532 0 0 0-.133.362.53.53 0 0 0 .141.358l2.694 2.85-.644 4.017a.546.546 0 0 0 .027.277.504.504 0 0 0 .159.22.44.44 0 0 0 .495.039l3.339-1.89 3.333 1.902c.09.052.196.07.298.051.255-.047.428-.309.384-.586l-.63-4.018 2.703-2.841a.523.523 0 0 0 .137-.29c.04-.279-.139-.536-.396-.578Z" fill="#FDBF00"/></svg>