<svg width="13" height="14" fill="none" xmlns="http://www.w3.org/2000/svg"><path d="m12.075 4.827-3.736-.593L6.675.576a.489.489 0 0 0-.213-.23C6.229.22 5.947.323 5.83.573L4.153 4.227l-3.738.58a.459.459 0 0 0-.27.147.531.531 0 0 0-.134.362.53.53 0 0 0 .142.358l2.699 2.85-.646 4.017a.545.545 0 0 0 .028.277.503.503 0 0 0 .159.22.442.442 0 0 0 .496.04l3.345-1.892 3.34 1.903c.09.052.197.07.298.051.256-.047.429-.309.385-.585l-.632-4.02 2.709-2.84a.523.523 0 0 0 .137-.29c.04-.279-.139-.536-.396-.578Z" fill="#FDBF00"/></svg>