<svg width="20" height="19" fill="none" xmlns="http://www.w3.org/2000/svg"><g clip-path="url('#clip0_1038_1444')" fill="#1262AF"><path d="M9.824 17.222A7.702 7.702 0 1 1 9.85 1.817a7.702 7.702 0 0 1-.026 15.405Zm-.002 1.1A8.802 8.802 0 1 0 9.852.717a8.802 8.802 0 0 0-.03 17.605Z"/><path d="M7.878 5.779a.635.635 0 0 1 .66.049l4.437 3.18a.634.634 0 0 1-.002 1.034l-4.448 3.165a.635.635 0 0 1-1.003-.518l.011-6.346a.635.635 0 0 1 .345-.564Z"/></g><defs><clipPath id="clip0_1038_1444"><path fill="#fff" transform="rotate(.097 -93.54 298.9)" d="M0 0h18.689v18.689H0z"/></clipPath></defs></svg>