<svg width="20" height="20" fill="none" xmlns="http://www.w3.org/2000/svg"><g clip-path="url('#clip0_1038_1398')" fill="#1262AF"><path d="M10.187 18.001a7.702 7.702 0 1 1 .026-15.404A7.702 7.702 0 0 1 10.187 18Zm-.002 1.1a8.802 8.802 0 1 0 .03-17.604 8.802 8.802 0 0 0-.03 17.605Z"/><path d="M8.241 6.558a.635.635 0 0 1 .66.05l4.437 3.18a.634.634 0 0 1-.002 1.033l-4.448 3.165a.635.635 0 0 1-1.003-.518l.011-6.346a.635.635 0 0 1 .345-.564Z"/></g><defs><clipPath id="clip0_1038_1398"><path fill="#fff" transform="rotate(.097 -551.492 512.694)" d="M0 0h18.689v18.689H0z"/></clipPath></defs></svg>