<svg width="19" height="19" viewBox="0 0 19 19" fill="none" xmlns="http://www.w3.org/2000/svg">
<g opacity="0.5">
<path d="M14.8521 3.02342L14.1816 3.02228L14.1839 1.68138L12.843 1.67909L12.8407 3.02L6.13618 3.0086L6.13846 1.66769L4.79756 1.66541L4.79527 3.00632L4.12482 3.00518C3.38732 3.00392 2.78289 3.6063 2.78163 4.3438L2.76338 15.0711C2.76213 15.8086 3.36451 16.413 4.10201 16.4143L14.8293 16.4325C15.5668 16.4338 16.1712 15.8314 16.1725 15.0939L16.1907 4.36661C16.192 3.62911 15.5896 3.02468 14.8521 3.02342ZM14.8316 15.0916L4.10429 15.0733L4.11912 6.35744L14.8464 6.37569L14.8316 15.0916Z" fill="black" fill-opacity="0.54"/>
</g>
</svg>
