<svg width="131" height="26" viewBox="0 0 131 26" fill="none" xmlns="http://www.w3.org/2000/svg">
<g clip-path="url(#clip0_1038_1160)">
<path d="M97.816 6.42546C98.8351 6.42719 99.7601 6.55838 100.591 6.81903C101.422 7.07969 102.123 7.4161 102.694 7.82827C103.052 8.07918 103.333 8.35677 103.538 8.66105C103.743 8.96533 103.845 9.35883 103.844 9.84155L103.828 19.2277L103.823 19.4829C103.792 20.3228 103.614 21.0554 103.288 21.6806C102.929 22.3683 102.441 22.9396 101.823 23.3944C101.206 23.8493 100.481 24.1832 99.6493 24.3964C98.8176 24.6095 97.9279 24.7153 96.9804 24.7136C95.3534 24.7109 94.0755 24.4897 93.1466 24.0501C92.2177 23.6105 91.754 22.899 91.7557 21.9157C91.7564 21.5045 91.8419 21.1426 92.0123 20.83C92.1827 20.5175 92.3753 20.2809 92.5901 20.1204C93.1081 20.4073 93.6932 20.6497 94.3454 20.8474C94.9977 21.0452 95.6724 21.1447 96.3696 21.1459C97.3351 21.1475 98.1041 20.9879 98.6768 20.6671C99.2494 20.3462 99.5364 19.8282 99.5376 19.1131L99.5383 18.684L99.3343 18.7675C98.6408 19.0322 97.8147 19.1638 96.8557 19.1622C96.0512 19.1608 95.2871 19.0388 94.5634 18.7963C93.8398 18.5537 93.2057 18.1771 92.6613 17.6667C92.1169 17.1562 91.68 16.4984 91.3506 15.6934C91.0212 14.8883 90.8575 13.9315 90.8594 12.823C90.8612 11.7325 91.0372 10.7852 91.3872 9.98127C91.7371 9.17733 92.221 8.51218 92.8387 7.98582C93.4564 7.45946 94.1901 7.06738 95.0397 6.80959C95.8894 6.5518 96.8148 6.42376 97.816 6.42546ZM25.63 6.71899C27.2244 6.7217 28.5284 7.08168 29.5422 7.79892C30.5559 8.51616 31.1545 9.781 31.3381 11.5934L27.9316 11.5876L27.8994 11.3871C27.8229 10.9918 27.675 10.6306 27.4555 10.3036C27.0831 9.78963 26.5041 9.53199 25.7186 9.53066C24.5987 9.52875 23.8316 10.0835 23.4176 11.195C23.1988 11.7857 23.0886 12.571 23.0869 13.551C23.0853 14.4842 23.1929 15.2349 23.4097 15.8031C23.8046 16.8614 24.5503 17.3916 25.6469 17.3934C26.4246 17.3948 26.9772 17.1857 27.3045 16.7663C27.6319 16.3469 27.8311 15.8028 27.9023 15.1341L31.2971 15.1398L31.2736 15.3722C31.1594 16.2975 30.8001 17.1761 30.1956 18.0078C29.151 19.4604 27.6059 20.185 25.5605 20.1815C23.515 20.178 22.0112 19.5688 21.0488 18.3539C20.0865 17.139 19.607 15.5633 19.6103 13.6267C19.614 11.4413 20.1496 9.74284 21.2172 8.53138C22.2848 7.31993 23.7557 6.7158 25.63 6.71899ZM56.527 6.73655C57.5847 6.73835 58.5371 6.93829 59.3842 7.33638C60.2312 7.73446 60.9301 8.36173 61.4809 9.21817C61.9773 9.97342 62.2986 10.8489 62.4447 11.8447C62.5292 12.4281 62.5628 13.2681 62.5454 14.3647L53.8425 14.3499L53.8541 14.5711C53.9352 15.7295 54.3304 16.5508 55.0396 17.0351C55.4979 17.3548 56.0498 17.5152 56.6953 17.5163C57.3797 17.5174 57.9362 17.3239 58.3646 16.9358C58.5982 16.7262 58.8048 16.4349 58.9844 16.0619L62.3792 16.0677L62.3537 16.2419C62.2299 16.9397 61.8443 17.6471 61.197 18.3639C60.1061 19.5986 58.5807 20.2143 56.6208 20.211C55.0031 20.2082 53.5768 19.6847 52.342 18.6405C51.1072 17.5962 50.4918 15.8997 50.4958 13.5509C50.4995 11.3499 51.0604 9.6632 52.1784 8.49072C53.2965 7.31824 54.746 6.73352 56.527 6.73655ZM79.88 2.10413C80.2733 2.1048 80.6263 2.13222 80.9391 2.18639C81.2519 2.24055 81.5154 2.34827 81.7297 2.50954C81.9439 2.67081 82.1089 2.8901 82.2247 3.16742C82.3404 3.44473 82.3979 3.80686 82.3972 4.25382L82.3707 19.808L82.2806 19.824C82.089 19.8576 81.8284 19.9009 81.4989 19.954C81.1144 20.0159 80.7255 20.0465 80.3321 20.0459C79.9388 20.0452 79.5858 20.0178 79.273 19.9636C78.9602 19.9095 78.6967 19.8017 78.4824 19.6405C78.2682 19.4792 78.1032 19.2599 77.9874 18.9826C77.8717 18.7053 77.8142 18.3431 77.8149 17.8962L77.8414 2.34202L77.9315 2.32603C78.1231 2.29242 78.3837 2.24908 78.7132 2.19601C79.0977 2.13409 79.4866 2.10346 79.88 2.10413ZM86.7252 6.75522C87.1185 6.75589 87.4715 6.78331 87.7843 6.83748C88.0971 6.89164 88.3606 6.99936 88.5749 7.16063C88.7892 7.3219 88.9541 7.54119 89.0699 7.81851C89.1856 8.09582 89.2431 8.45795 89.2424 8.90491L89.2238 19.8196L89.1337 19.8356C88.9421 19.8692 88.6815 19.9126 88.352 19.9657C87.9675 20.0276 87.5786 20.0582 87.1852 20.0575C86.7919 20.0569 86.4389 20.0294 86.1261 19.9753C85.8133 19.9211 85.5498 19.8134 85.3355 19.6521C85.1213 19.4909 84.9562 19.2716 84.8405 18.9943C84.7248 18.7169 84.6673 18.3548 84.668 17.9078L84.6866 6.99311L84.7767 6.97712C84.9683 6.94351 85.2289 6.90017 85.5584 6.8471C85.9429 6.78518 86.3318 6.75455 86.7252 6.75522ZM108.082 2.15211C108.476 2.15277 108.829 2.18019 109.141 2.23436C109.454 2.28853 109.718 2.39625 109.932 2.55752C110.146 2.71879 110.311 2.93808 110.427 3.21539C110.543 3.4927 110.6 3.85484 110.599 4.3018L110.595 6.92991L110.688 6.89592C110.918 6.81516 111.24 6.72429 111.655 6.62331C112.129 6.50791 112.652 6.4507 113.224 6.45167C114.994 6.45468 116.374 6.89952 117.365 7.78618C118.356 8.67285 118.85 9.99222 118.847 11.7443L118.833 19.87L118.75 19.8929C118.571 19.9385 118.317 19.9841 117.988 20.0295C117.603 20.0825 117.205 20.1086 116.794 20.1079C116.401 20.1072 116.048 20.0798 115.735 20.0256C115.422 19.9715 115.159 19.8638 114.945 19.7025C114.73 19.5412 114.565 19.3219 114.45 19.0446C114.334 18.7673 114.276 18.4052 114.277 17.9582L114.287 12.0047L114.284 11.8394C114.259 11.1939 114.078 10.7347 113.74 10.4618C113.374 10.1662 112.923 10.0179 112.386 10.017C112.029 10.0164 111.689 10.0605 111.367 10.1493C111.045 10.2382 110.786 10.345 110.589 10.4698L110.573 19.856L110.49 19.8788C110.312 19.9245 110.058 19.97 109.728 20.0154C109.343 20.0684 108.946 20.0946 108.534 20.0939C108.141 20.0932 107.788 20.0658 107.475 20.0116C107.162 19.9574 106.899 19.8497 106.685 19.6884C106.47 19.5272 106.305 19.3079 106.19 19.0306C106.074 18.7533 106.016 18.3911 106.017 17.9442L106.044 2.39L106.134 2.374C106.325 2.3404 106.586 2.29706 106.916 2.24398C107.3 2.18206 107.689 2.15144 108.082 2.15211ZM75.9743 3.57246L76.0356 3.67648C76.1358 3.85916 76.2267 4.08838 76.3081 4.36414C76.4059 4.69506 76.4545 5.0393 76.4539 5.39687C76.4527 6.09413 76.3044 6.59 76.0089 6.88449C75.7134 7.17898 75.3153 7.3258 74.8147 7.32495L69.1831 7.31537L69.1779 10.3457L75.0509 10.3557L75.1204 10.4594C75.2331 10.6409 75.3302 10.8658 75.4117 11.1341C75.5094 11.456 75.558 11.7958 75.5574 12.1534C75.5563 12.8328 75.4079 13.3197 75.1124 13.6142C74.8169 13.9087 74.4189 14.0555 73.9183 14.0546L69.2252 14.0467L69.2156 19.7052L69.1244 19.728C68.9284 19.7736 68.6503 19.8191 68.2901 19.8645C67.8699 19.9174 67.4542 19.9435 67.043 19.9428C66.6318 19.9421 66.2698 19.9102 65.957 19.8471C65.6443 19.784 65.3807 19.6718 65.1665 19.5105C64.9522 19.3493 64.7917 19.1255 64.6849 18.8393C64.5781 18.5531 64.5251 18.1775 64.5259 17.7127L64.5458 6.04705L64.5507 5.85822C64.586 5.17816 64.8089 4.63362 65.2193 4.2246C65.667 3.7784 66.2753 3.55596 67.044 3.55727L75.9743 3.57246ZM12.9448 2.5443L12.9397 5.5658L4.31851 5.55113L4.31179 9.50591L11.8597 9.51875L11.8546 12.5052L4.30671 12.4924L4.29444 19.702L0.724646 19.6959L0.753857 2.52356L12.9448 2.5443ZM17.8076 7.009L17.786 19.7249L14.4145 19.7192L14.4362 7.00326L17.8076 7.009ZM36.1888 2.61884L36.173 11.8816L40.3226 7.10563L44.4407 7.11263L39.9877 11.9698L44.5942 19.7705L40.5811 19.7637L37.5455 14.3222L36.1664 15.7548L36.1596 19.7562L32.8932 19.7506L32.9223 2.61328L36.1888 2.61884ZM48.9572 2.58223L48.9279 19.7779L45.6031 19.7723L45.6324 2.57657L48.9572 2.58223ZM119.109 3.53554C119.666 3.3689 120.618 3.33324 121.73 3.82755C122.853 4.32656 123.553 5.18039 123.829 6.38904L129.862 6.91213C129.937 6.91659 130.011 6.93186 130.085 6.95792C130.196 6.99703 130.255 7.05187 130.305 7.09482C130.428 7.20011 130.467 7.2812 130.525 7.42639C130.629 7.68456 130.597 7.98816 130.461 8.19614C130.243 8.53145 129.901 8.74806 129.436 8.84597L124.564 9.87308L125.417 13.9199C125.514 14.3845 125.732 14.6839 126.068 14.8183C126.404 14.9527 126.84 14.9634 127.376 14.8505C127.644 14.794 127.916 14.7133 128.193 14.6083C128.469 14.5034 128.707 14.3926 128.906 14.276C129.109 14.4386 129.293 14.6283 129.46 14.845C129.627 15.0617 129.747 15.3398 129.818 15.6793C130.083 16.9343 128.106 18.116 126.811 18.3464C125.612 18.5598 123.773 18.7356 122.726 15.9793C121.679 13.2231 120.036 8.60316 118.782 4.75327C118.674 4.42103 118.607 4.09479 118.724 3.82587C118.788 3.68052 118.834 3.61781 119.109 3.53554ZM98.0245 9.99256C97.1485 9.99107 96.491 10.2358 96.0521 10.7267C95.6133 11.2176 95.3931 11.9189 95.3915 12.8307C95.3898 13.8677 95.6075 14.6145 96.0448 15.0711C96.482 15.5278 97.0403 15.7567 97.7197 15.7578C98.4527 15.7591 99.034 15.5902 99.4637 15.2513L99.4721 10.3168L99.3901 10.2738C99.2715 10.2164 99.1157 10.1589 98.9227 10.1014C98.6815 10.0294 98.3821 9.99316 98.0245 9.99256ZM56.5224 9.47806C55.7524 9.47675 55.1551 9.71683 54.7304 10.1983C54.3057 10.6798 54.0382 11.3326 53.9279 12.1568L59.096 12.1656C59.043 11.2867 58.7778 10.6193 58.3003 10.1635C57.8227 9.70776 57.2301 9.47926 56.5224 9.47806ZM17.8154 2.42426L17.8102 5.49242L14.4387 5.48668L14.444 2.41853L17.8154 2.42426ZM86.9767 0.775324C87.7276 0.776601 88.3306 1.01005 88.7857 1.47566C89.2408 1.94127 89.4678 2.51377 89.4666 3.19314C89.4655 3.87252 89.2365 4.44424 88.7798 4.9083C88.3232 5.37236 87.7194 5.60376 86.9685 5.60248C86.2176 5.6012 85.6146 5.36776 85.1595 4.90214C84.7044 4.43653 84.4774 3.86404 84.4785 3.18466C84.4797 2.50528 84.7086 1.93356 85.1653 1.4695C85.622 1.00544 86.2258 0.774047 86.9767 0.775324Z" fill="url(#paint0_linear_1038_1160)"/>
</g>
<defs>
<linearGradient id="paint0_linear_1038_1160" x1="121.151" y1="12.5094" x2="1.90947" y2="24.4419" gradientUnits="userSpaceOnUse">
<stop stop-color="#299BD8"/>
<stop offset="1" stop-color="#1262AF"/>
</linearGradient>
<clipPath id="clip0_1038_1160">
<rect width="130.072" height="24.6688" fill="white" transform="translate(0.757751 0.23584) rotate(0.0974616)"/>
</clipPath>
</defs>
</svg>
