<svg width="368" height="496" viewBox="0 0 368 496" fill="none" xmlns="http://www.w3.org/2000/svg">
<g clip-path="url(#clip0_2702_4406)">
<g clip-path="url(#clip1_2702_4406)">
<path d="M274.081 443.127C276.954 443.132 279.562 443.5 281.905 444.23C284.248 444.96 286.225 445.903 287.836 447.057C288.843 447.76 289.636 448.538 290.214 449.391C290.792 450.243 291.08 451.345 291.078 452.698L291.033 478.994L291.019 479.709C290.932 482.063 290.429 484.115 289.509 485.867C288.498 487.793 287.121 489.394 285.38 490.668C283.639 491.942 281.595 492.878 279.25 493.475C276.905 494.072 274.397 494.369 271.725 494.364C267.138 494.356 263.535 493.736 260.916 492.505C258.297 491.273 256.989 489.28 256.994 486.525C256.996 485.373 257.237 484.359 257.717 483.483C258.198 482.608 258.741 481.945 259.347 481.495C260.807 482.299 262.457 482.978 264.296 483.532C266.135 484.086 268.037 484.365 270.003 484.368C272.725 484.373 274.894 483.926 276.508 483.027C278.123 482.128 278.932 480.677 278.935 478.673L278.937 477.471L278.362 477.705C276.407 478.447 274.078 478.815 271.374 478.811C269.105 478.807 266.951 478.465 264.911 477.785C262.87 477.106 261.082 476.051 259.547 474.621C258.012 473.191 256.78 471.348 255.852 469.092C254.923 466.837 254.461 464.156 254.466 461.051C254.472 457.995 254.968 455.341 255.954 453.089C256.941 450.837 258.305 448.973 260.047 447.498C261.789 446.024 263.857 444.925 266.253 444.203C268.649 443.481 271.258 443.122 274.081 443.127ZM70.5482 443.947C75.0436 443.955 78.7204 444.963 81.5787 446.973C84.437 448.982 86.125 452.526 86.6426 457.604L77.0378 457.588L76.9468 457.026C76.7312 455.918 76.3141 454.906 75.6953 453.99C74.6452 452.55 73.0128 451.828 70.798 451.824C67.6402 451.819 65.4776 453.373 64.3101 456.487C63.6933 458.142 63.3825 460.342 63.3779 463.088C63.3734 465.703 63.6768 467.806 64.2881 469.397C65.4015 472.363 67.5041 473.848 70.596 473.853C72.7889 473.857 74.3468 473.271 75.2698 472.096C76.1928 470.921 76.7546 469.397 76.9552 467.523L86.527 467.54L86.4609 468.19C86.1389 470.783 85.1257 473.244 83.4214 475.575C80.476 479.644 76.1197 481.674 70.3525 481.664C64.5852 481.654 60.3449 479.948 57.6316 476.544C54.9182 473.14 53.5661 468.726 53.5754 463.3C53.5858 457.177 55.096 452.419 58.106 449.025C61.116 445.631 65.2634 443.938 70.5482 443.947ZM157.664 443.997C160.646 444.002 163.332 444.563 165.72 445.678C168.108 446.793 170.079 448.551 171.632 450.95C173.032 453.066 173.938 455.519 174.349 458.309C174.588 459.943 174.683 462.297 174.634 465.369L150.095 465.327L150.128 465.947C150.357 469.192 151.471 471.493 153.47 472.85C154.763 473.746 156.319 474.195 158.139 474.198C160.069 474.202 161.638 473.659 162.846 472.572C163.504 471.985 164.087 471.169 164.593 470.124L174.165 470.14L174.093 470.628C173.744 472.583 172.657 474.565 170.832 476.573C167.756 480.032 163.455 481.757 157.929 481.748C153.368 481.74 149.346 480.273 145.865 477.348C142.383 474.422 140.648 469.669 140.659 463.089C140.669 456.922 142.251 452.197 145.403 448.912C148.555 445.627 152.642 443.989 157.664 443.997ZM223.509 431.02C224.618 431.022 225.613 431.098 226.495 431.25C227.377 431.402 228.12 431.704 228.724 432.156C229.329 432.607 229.794 433.222 230.12 433.999C230.446 434.776 230.609 435.79 230.606 437.042L230.532 480.62L230.278 480.664C229.738 480.759 229.003 480.88 228.074 481.029C226.99 481.202 225.894 481.288 224.785 481.286C223.676 481.284 222.68 481.207 221.798 481.056C220.916 480.904 220.173 480.602 219.569 480.15C218.965 479.698 218.5 479.084 218.173 478.307C217.847 477.53 217.685 476.516 217.687 475.263L217.761 431.686L218.015 431.641C218.555 431.547 219.29 431.426 220.219 431.277C221.303 431.104 222.4 431.018 223.509 431.02ZM242.81 444.051C243.919 444.052 244.914 444.129 245.796 444.281C246.678 444.433 247.421 444.735 248.025 445.186C248.629 445.638 249.094 446.253 249.421 447.03C249.747 447.807 249.909 448.821 249.907 450.073L249.855 480.652L249.601 480.697C249.061 480.791 248.326 480.913 247.397 481.062C246.313 481.235 245.216 481.321 244.107 481.319C242.998 481.317 242.003 481.24 241.121 481.088C240.239 480.937 239.496 480.635 238.892 480.183C238.288 479.731 237.822 479.117 237.496 478.34C237.17 477.563 237.008 476.548 237.01 475.296L237.062 444.717L237.316 444.672C237.856 444.578 238.591 444.457 239.52 444.308C240.604 444.134 241.701 444.049 242.81 444.051ZM303.027 431.155C304.136 431.157 305.131 431.234 306.013 431.385C306.895 431.537 307.638 431.839 308.242 432.291C308.847 432.743 309.312 433.357 309.638 434.134C309.965 434.911 310.127 435.925 310.124 437.178L310.112 444.541L310.374 444.446C311.022 444.219 311.931 443.965 313.1 443.682C314.437 443.358 315.911 443.198 317.524 443.201C322.515 443.209 326.407 444.456 329.2 446.94C331.994 449.424 333.386 453.12 333.378 458.029L333.339 480.795L333.105 480.859C332.602 480.986 331.886 481.114 330.957 481.241C329.873 481.39 328.751 481.463 327.592 481.461C326.483 481.459 325.487 481.382 324.605 481.23C323.723 481.079 322.98 480.777 322.376 480.325C321.772 479.873 321.307 479.259 320.98 478.482C320.654 477.705 320.492 476.69 320.494 475.438L320.522 458.759L320.514 458.296C320.444 456.487 319.932 455.2 318.98 454.436C317.948 453.608 316.676 453.192 315.163 453.19C314.155 453.188 313.197 453.312 312.289 453.56C311.382 453.809 310.65 454.109 310.095 454.458L310.05 480.755L309.816 480.819C309.313 480.947 308.597 481.074 307.668 481.202C306.584 481.35 305.462 481.423 304.303 481.421C303.194 481.419 302.198 481.343 301.316 481.191C300.434 481.039 299.691 480.737 299.087 480.285C298.483 479.834 298.018 479.219 297.691 478.442C297.365 477.665 297.203 476.651 297.205 475.399L297.279 431.821L297.533 431.777C298.073 431.682 298.808 431.561 299.737 431.412C300.821 431.239 301.918 431.153 303.027 431.155ZM212.497 435.133L212.67 435.425C212.952 435.937 213.208 436.579 213.438 437.351C213.714 438.278 213.851 439.243 213.849 440.245C213.846 442.198 213.428 443.587 212.594 444.412C211.761 445.237 210.639 445.649 209.227 445.646L193.349 445.619L193.334 454.109L209.894 454.138L210.089 454.428C210.407 454.936 210.681 455.566 210.911 456.318C211.186 457.22 211.323 458.172 211.322 459.174C211.318 461.077 210.9 462.442 210.067 463.267C209.234 464.092 208.112 464.503 206.7 464.501L193.468 464.478L193.441 480.331L193.184 480.395C192.631 480.523 191.847 480.65 190.831 480.777C189.646 480.926 188.474 480.999 187.315 480.997C186.155 480.995 185.135 480.906 184.253 480.729C183.371 480.552 182.628 480.238 182.024 479.786C181.42 479.334 180.967 478.707 180.666 477.905C180.365 477.103 180.216 476.051 180.218 474.749L180.273 442.066L180.287 441.537C180.387 439.632 181.015 438.106 182.172 436.96C183.435 435.71 185.15 435.087 187.317 435.09L212.497 435.133ZM34.7814 432.251L34.767 440.716L10.459 440.675L10.4402 451.755L31.722 451.791L31.7077 460.158L10.4259 460.122L10.3916 480.32L0.326322 480.303L0.40816 432.192L34.7814 432.251ZM48.4925 444.759L48.4319 480.385L38.9258 480.369L38.9864 444.743L48.4925 444.759ZM100.319 432.46L100.275 458.411L111.975 445.031L123.586 445.051L111.031 458.659L124.019 480.514L112.704 480.494L104.145 465.249L100.257 469.263L100.237 480.473L91.0274 480.457L91.1091 432.445L100.319 432.46ZM136.32 432.358L136.238 480.534L126.864 480.518L126.946 432.342L136.32 432.358ZM334.118 435.031C335.689 434.564 338.371 434.464 341.509 435.849C344.676 437.247 346.648 439.64 347.427 443.026L364.437 444.492C364.648 444.504 364.857 444.547 365.066 444.62C365.378 444.729 365.546 444.883 365.686 445.003C366.031 445.298 366.143 445.526 366.307 445.932C366.598 446.656 366.508 447.506 366.126 448.089C365.51 449.028 364.547 449.635 363.237 449.909L349.497 452.787L351.902 464.125C352.179 465.426 352.791 466.265 353.739 466.642C354.687 467.018 355.916 467.048 357.428 466.732C358.183 466.574 358.951 466.347 359.73 466.053C360.51 465.76 361.181 465.449 361.743 465.122C362.313 465.578 362.833 466.109 363.304 466.717C363.775 467.324 364.111 468.103 364.313 469.054C365.059 472.57 359.486 475.881 355.836 476.526C352.455 477.124 347.268 477.616 344.317 469.894C341.366 462.172 336.731 449.229 333.195 438.443C332.89 437.512 332.702 436.598 333.033 435.845C333.212 435.437 333.342 435.262 334.118 435.031ZM274.669 453.121C272.199 453.117 270.345 453.802 269.108 455.177C267.87 456.553 267.249 458.518 267.245 461.072C267.24 463.977 267.854 466.07 269.087 467.349C270.32 468.628 271.894 469.27 273.81 469.273C275.876 469.276 277.515 468.803 278.727 467.854L278.75 454.029L278.519 453.909C278.185 453.748 277.745 453.587 277.201 453.426C276.521 453.224 275.677 453.122 274.669 453.121ZM157.651 451.678C155.48 451.674 153.796 452.347 152.599 453.696C151.401 455.045 150.647 456.874 150.336 459.183L164.908 459.208C164.758 456.745 164.01 454.876 162.664 453.599C161.318 452.322 159.647 451.681 157.651 451.678ZM48.5143 431.915L48.4997 440.511L38.9936 440.494L39.0082 431.899L48.5143 431.915ZM243.519 427.297C245.636 427.301 247.336 427.955 248.619 429.259C249.902 430.564 250.542 432.168 250.539 434.071C250.536 435.974 249.89 437.576 248.603 438.876C247.315 440.176 245.613 440.825 243.496 440.821C241.378 440.817 239.678 440.163 238.395 438.859C237.112 437.554 236.472 435.95 236.475 434.047C236.478 432.144 237.124 430.542 238.411 429.242C239.699 427.942 241.401 427.293 243.519 427.297Z" fill="white"/>
</g>
</g>
<defs>
<clipPath id="clip0_2702_4406">
<rect width="366.746" height="494.808" fill="white" transform="translate(1.14319 0.0888672) rotate(0.0974616)"/>
</clipPath>
<clipPath id="clip1_2702_4406">
<rect width="366.746" height="69.1132" fill="white" transform="translate(0.419067 425.783) rotate(0.0974616)"/>
</clipPath>
</defs>
</svg>
