<svg width="53" height="50" viewBox="0 0 53 50" fill="none" xmlns="http://www.w3.org/2000/svg">
<path d="M0.419718 12.5557C0.430955 5.95004 5.79501 0.604202 12.4007 0.615438L40.8071 0.663758C47.4128 0.674995 52.7586 6.03905 52.7474 12.6447L52.705 37.6028C52.6937 44.2085 47.3297 49.5543 40.724 49.5431L12.3175 49.4948C5.71187 49.4835 0.366027 44.1195 0.377264 37.5138L0.419718 12.5557Z" fill="#4DABFF"/>
<path d="M34.7257 18.4184C34.4912 17.7748 33.8323 17.3158 33.0548 17.3145L30.1096 17.3095L30.1114 16.2193C30.1125 15.6197 29.5832 15.1282 28.9352 15.1271L24.223 15.1191C23.575 15.118 23.0441 15.6077 23.0431 16.2073L23.0412 17.2974L20.096 17.2924C19.3185 17.2911 18.6698 17.7479 18.4213 18.3907L16.09 24.5679C16.0072 24.7967 15.9596 25.0365 15.9592 25.2872L15.9459 33.0927C15.9444 33.9976 16.7324 34.7293 17.7102 34.731C18.688 34.7327 19.4786 34.0036 19.4801 33.0988L19.481 32.5537L33.6178 32.5777L33.6169 33.1228C33.6154 34.0167 34.4034 34.7594 35.3812 34.7611C36.3472 34.7627 37.1495 34.0337 37.1511 33.1288L37.1644 25.3233C37.1648 25.0834 37.1181 24.8326 37.036 24.6035L34.7257 18.4184ZM20.0756 29.2842C19.0978 29.2825 18.3098 28.5508 18.3113 27.646C18.3129 26.7411 19.1034 26.0121 20.0812 26.0137C21.059 26.0154 21.8471 26.7471 21.8455 27.652C21.844 28.5568 21.0534 29.2859 20.0756 29.2842ZM33.0344 29.3062C32.0566 29.3046 31.2685 28.5728 31.27 27.668C31.2716 26.7632 32.0621 26.0341 33.0399 26.0358C34.0177 26.0374 34.8058 26.7692 34.8042 27.674C34.8027 28.5788 34.0121 29.3079 33.0344 29.3062ZM18.3178 23.8304L20.0933 18.9277L33.052 18.9497L34.8107 23.8584L18.3178 23.8304Z" fill="white"/>
</svg>
