<svg width="50" height="50" viewBox="0 0 50 50" fill="none" xmlns="http://www.w3.org/2000/svg">
<path d="M0.231074 12.9396C0.24231 6.33395 5.60637 0.988113 12.212 0.999349L37.1701 1.0418C43.7758 1.05304 49.1216 6.4171 49.1104 13.0228L49.0679 37.9809C49.0567 44.5865 43.6927 49.9324 37.087 49.9211L12.1289 49.8787C5.52322 49.8674 0.177383 44.5034 0.188619 37.8977L0.231074 12.9396Z" fill="#FF9B53"/>
<path d="M28.8586 14.5153C28.3669 14.0268 27.6995 13.7517 27.0032 13.7505C26.3068 13.7493 25.6385 14.0221 25.1451 14.5089L13.5931 25.9155C13.3487 26.1567 13.1548 26.4432 13.0222 26.7587C12.8897 27.0742 12.8212 27.4124 12.8206 27.7541C12.82 28.0959 12.8874 28.4344 13.0189 28.7503C13.1503 29.0662 13.3433 29.3534 13.5868 29.5954L14.9527 30.952C15.547 31.544 16.3842 31.4402 16.8902 31.1427C17.1693 30.9791 17.4955 30.9123 17.8172 30.9529C18.1389 30.9934 18.4378 31.1389 18.6667 31.3665C18.8956 31.594 19.0415 31.8907 19.0813 32.2095C19.1212 32.5283 19.0526 32.8512 18.8866 33.1271C18.5857 33.6274 18.4769 34.4564 19.0725 35.0472L20.4395 36.405C20.683 36.647 20.9722 36.8392 21.2907 36.9705C21.6091 37.1018 21.9506 37.1697 22.2955 37.1703C22.6405 37.1709 22.9821 37.1042 23.301 36.9739C23.6199 36.8437 23.9098 36.6525 24.1541 36.4113L35.705 25.0071C35.9494 24.7659 36.1433 24.4793 36.2759 24.1639C36.4084 23.8484 36.4769 23.5101 36.4775 23.1684C36.4781 22.8267 36.4107 22.4882 36.2793 22.1723C36.1478 21.8563 35.9548 21.5692 35.7113 21.3271L34.3466 19.9694C33.7522 19.3786 32.9139 19.4812 32.4079 19.7787C32.1288 19.9423 31.8026 20.0091 31.4809 19.9685C31.1592 19.928 30.8603 19.7825 30.6314 19.5549C30.4025 19.3274 30.2566 19.0307 30.2168 18.7119C30.177 18.3931 30.2455 18.0702 30.4115 17.7943C30.7135 17.294 30.8212 16.465 30.2257 15.8742L28.8598 14.5153L28.8586 14.5153Z" fill="white"/>
</svg>
