<svg width="50" height="50" viewBox="0 0 50 50" fill="none" xmlns="http://www.w3.org/2000/svg">
<path d="M0.936083 12.3525C0.94732 5.7468 6.31138 0.400955 12.917 0.412191L37.8751 0.454645C44.4808 0.465882 49.8266 5.82994 49.8154 12.4356L49.773 37.3937C49.7617 43.9994 44.3977 49.3452 37.792 49.334L12.8339 49.2915C6.22823 49.2803 0.882392 43.9162 0.893629 37.3106L0.936083 12.3525Z" fill="#FDBF00"/>
<path d="M15.2832 30.8163C15.2813 31.9127 15.7701 32.8978 16.5361 33.5844L16.5334 35.1791C16.5316 36.2132 17.3728 37.0494 18.4166 37.0512C19.4605 37.0529 20.3045 36.2196 20.3063 35.1855L20.3073 34.5626L30.3684 34.5797L30.3673 35.2026C30.3656 36.2243 31.2068 37.0729 32.2506 37.0747C33.2819 37.0765 34.1385 36.2432 34.1402 35.2091L34.1429 33.6143C34.9113 32.9304 35.4034 31.947 35.4053 30.8506L35.4265 18.3916C35.4339 14.031 30.9326 13.4003 25.3739 13.3909C19.8151 13.3814 15.3118 13.9967 15.3043 18.3574L15.2832 30.8163ZM19.6827 32.0697C18.6389 32.0679 17.7977 31.2318 17.7995 30.1977C17.8012 29.1636 18.6453 28.3303 19.6891 28.332C20.7329 28.3338 21.5741 29.17 21.5724 30.2041C21.5706 31.2382 20.7266 32.0715 19.6827 32.0697ZM31.0014 32.089C29.9576 32.0872 29.1164 31.251 29.1182 30.2169C29.1199 29.1828 29.964 28.3495 31.0078 28.3513C32.0516 28.3531 32.8928 29.1892 32.8911 30.2233C32.8893 31.2574 32.0453 32.0908 31.0014 32.089ZM32.9006 24.6168L17.809 24.5911L17.8196 18.3616L32.9112 18.3873L32.9006 24.6168Z" fill="white"/>
</svg>
