<svg width="50" height="50" viewBox="0 0 50 50" fill="none" xmlns="http://www.w3.org/2000/svg">
<path d="M0.627573 12.7619C0.63881 6.15622 6.00287 0.810378 12.6085 0.821615L37.5666 0.864069C44.1723 0.875306 49.5181 6.23937 49.5069 12.845L49.4644 37.8031C49.4532 44.4088 44.0892 49.7546 37.4835 49.7434L12.5254 49.7009C5.91972 49.6897 0.573883 44.3256 0.585119 37.72L0.627573 12.7619Z" fill="#79CA00"/>
<path d="M32.8676 16.5946L17.2535 16.568C16.1772 16.5662 15.3003 17.4319 15.2985 18.4983L15.2755 32.0331C15.2737 33.0995 16.1476 33.9682 17.2239 33.97L32.838 33.9966C33.9144 33.9984 34.7912 33.1327 34.7931 32.0663L34.8161 18.5315C34.8179 17.4651 33.944 16.5964 32.8676 16.5946ZM32.8587 22.3952C32.8577 22.3952 32.8577 22.3952 32.8587 22.3952L32.4049 22.3945L29.8088 18.5229L32.8643 18.5281L32.8587 22.3952ZM28.4564 28.1884L23.0842 31.0796L23.094 25.279L28.4564 28.1884ZM27.5255 22.3862L24.9295 18.5146L27.4628 18.5189L30.0589 22.3905L27.5255 22.3862ZM25.1795 22.3822L22.6461 22.3779L20.0501 18.5063L22.5834 18.5106L25.1795 22.3822ZM17.2503 18.5016L17.704 18.5023L20.3001 22.3739L17.2437 22.3687L17.2503 18.5016Z" fill="white"/>
</svg>
