<svg width="89" height="19" viewBox="0 0 89 19" fill="none" xmlns="http://www.w3.org/2000/svg">
<line x1="4.42724" y1="8.94923" x2="81.8362" y2="9.08091" stroke="#CCCCCC" stroke-width="0.74754" stroke-dasharray="2.24 2.24"/>
<path d="M43.7204 16.4304L42.6997 16.4287C42.5971 16.4285 42.4962 16.4048 42.4062 16.3597C42.3163 16.3147 42.2401 16.2498 42.1847 16.1709C42.1292 16.0921 42.0963 16.0018 42.0889 15.9083C42.0815 15.8148 42.0999 15.7211 42.1423 15.6358L44.6225 10.6554L40.9113 10.5738L39.5552 12.0702C39.2966 12.3662 39.0905 12.498 38.5652 12.4971L37.8781 12.4959C37.7693 12.4989 37.6613 12.4779 37.5632 12.4347C37.4652 12.3914 37.38 12.3273 37.3148 12.2475C37.2238 12.1349 37.1343 11.9441 37.2222 11.6724L37.9864 9.18575C37.9922 9.16719 37.9992 9.14863 38.0069 9.13042C38.0072 9.12869 38.0073 9.1269 38.0069 9.12517C37.999 9.10695 37.9922 9.08833 37.9866 9.06942L37.2302 6.56445C37.1482 6.29765 37.2386 6.11139 37.3293 6.00186C37.3902 5.92828 37.4691 5.86879 37.5597 5.82817C37.6504 5.78755 37.7502 5.76693 37.8512 5.76798L38.5766 5.76921C38.9689 5.76988 39.3494 5.93136 39.5729 6.1914L40.8959 7.66712L44.6276 7.62301L42.1652 2.643C42.123 2.55759 42.1049 2.46387 42.1125 2.37042C42.1201 2.27697 42.1533 2.18677 42.2089 2.10805C42.2645 2.02934 42.3409 1.96464 42.4309 1.91985C42.521 1.87506 42.6219 1.85162 42.7244 1.85168L43.7563 1.85343C43.9002 1.85632 44.0416 1.8888 44.17 1.94847C44.2983 2.00814 44.4103 2.09346 44.4977 2.19809L49.2835 7.53246L51.4987 7.48297C51.6609 7.47518 52.1103 7.47315 52.2143 7.47332C54.3331 7.47798 55.5974 8.10876 55.5956 9.16209C55.5951 9.49358 55.4491 10.108 54.4787 10.4974C53.9058 10.7277 53.1418 10.8434 52.2078 10.8418C52.105 10.8416 51.6568 10.8381 51.4923 10.8297L49.2776 10.772L44.4618 16.09C44.374 16.1939 44.2618 16.2784 44.1335 16.3373C44.0052 16.3963 43.864 16.4281 43.7204 16.4304Z" fill="#1262AE"/>
<circle cx="4.62007" cy="9.32327" r="2.99016" transform="rotate(0.0974616 4.62007 9.32327)" fill="white" stroke="#1262AE" stroke-width="1.49508"/>
<circle cx="84.8693" cy="9.1481" r="2.99016" transform="rotate(0.0974616 84.8693 9.1481)" fill="white" stroke="#1262AE" stroke-width="1.49508"/>
</svg>
