<svg width="50" height="50" viewBox="0 0 50 50" fill="none" xmlns="http://www.w3.org/2000/svg">
<rect x="0.472761" y="0.188599" width="48.8794" height="48.8794" rx="11.9606" transform="rotate(0.0974616 0.472761 0.188599)" fill="#36DA76"/>
<path d="M31.1846 34.2077C31.1451 33.3304 31.0922 32.4578 31.0502 31.5871C30.9142 28.8635 30.9304 26.1002 30.7879 23.363C30.6454 20.6464 30.7373 17.9283 30.6642 15.2119C30.6496 14.6473 30.6767 13.5325 30.0931 13.2097C28.8377 12.5162 28.0885 14.4006 27.7675 15.1678C27.1888 16.5604 26.8534 18.0254 26.4393 19.4684C26.0864 20.7036 25.6847 21.9347 25.5472 23.2139C25.4452 24.1738 25.4526 25.2486 25.9527 26.1144C26.2038 26.5496 26.6388 26.8463 27.1344 26.9722C27.6488 27.1047 28.2375 26.9333 28.7254 27.1666C28.8512 27.2276 28.9619 27.3542 29.0122 27.4819C29.1698 27.8935 29.019 28.5173 28.9688 28.9416C28.8097 30.3084 28.6416 31.6887 28.5651 33.0622C28.5198 33.8928 28.4694 34.9566 28.9707 35.6812C29.278 36.1212 29.9016 36.5327 30.4652 36.3152C31.3075 35.9944 31.2184 34.9058 31.1846 34.2077Z" fill="white"/>
<path d="M20.5097 13.7998C20.2676 13.8964 20.3578 14.7615 20.3466 15.0272C20.3299 15.5046 20.3614 16.1365 20.3029 16.7552C20.3025 16.7607 20.3017 16.7645 20.3009 16.7684C20.2958 16.8114 20.2917 16.8577 20.2845 16.9067C20.2769 16.954 20.2688 16.9996 20.263 17.0464C20.2109 17.348 20.1121 17.7051 19.9262 17.8761C19.7152 18.0716 19.2432 18.0296 19.0796 17.7979C18.812 17.4206 18.8335 16.5793 18.8173 16.5545C18.8071 16.1565 18.7511 14.9527 18.6655 14.1589C18.6584 14.099 18.6474 13.7393 18.3191 13.7003C18.1659 13.6834 18.0045 13.8136 17.9519 14.0519C17.7964 14.7553 17.6497 16.0964 17.6402 16.3073C17.6384 16.3277 17.6374 16.3515 17.6373 16.3715C17.6373 16.3715 17.6365 16.3753 17.6369 16.377C17.6359 16.4208 17.5819 17.4716 17.3154 17.8337C17.1761 18.0235 16.815 18.1724 16.4567 17.9707C16.314 17.8894 16.2164 17.7332 16.1477 17.5659C15.7747 16.3981 16.1135 15.1129 16.1624 14.5003C16.1769 14.328 16.3339 13.7529 15.9858 13.7716C15.4615 13.7992 14.7808 16.0314 14.6589 16.5431C14.36 17.8163 14.3126 19.1772 14.8267 20.4066C15.1123 21.0875 15.6722 21.6454 16.3673 21.9166C16.6744 22.0353 17.0159 22.1217 17.3775 22.1721C17.2424 25.0674 17.0895 28.0887 16.9521 29.7701C16.8465 31.0353 16.7221 32.3145 16.7364 33.5852C16.7448 34.3444 16.7353 35.2497 17.2325 35.8871C17.7527 36.553 18.8528 36.2489 19.151 35.4636C19.4856 34.5783 19.3905 33.5458 19.2798 31.9191C19.1687 30.2907 19.0443 28.0693 18.9758 26.8741C18.8754 25.1142 18.8419 23.5765 18.8344 22.1735C19.7605 22.0428 20.6248 21.6469 21.1094 20.9171C21.322 20.5979 21.4622 20.241 21.5581 19.8737C21.7053 19.3175 21.7777 18.708 21.7471 18.1339C21.7158 17.6053 21.2885 13.4893 20.5097 13.7998Z" fill="white"/>
</svg>
