<svg width="50" height="50" viewBox="0 0 50 50" fill="none" xmlns="http://www.w3.org/2000/svg">
<rect x="1.03006" y="0.769409" width="48.8794" height="48.8794" rx="11.9606" transform="rotate(0.0974616 1.03006 0.769409)" fill="#F9668D"/>
<path d="M24.5785 21.8573L26.2906 21.8602L26.292 21.0123C26.2924 20.7874 26.3829 20.5718 26.5437 20.4131C26.7045 20.2543 26.9224 20.1653 27.1495 20.1657L29.7175 20.1701C29.9445 20.1705 30.1621 20.2602 30.3224 20.4195C30.4826 20.5788 30.5725 20.7946 30.5721 21.0195L30.5706 21.8675L33.9947 21.8733L34.0005 18.4814C34.002 17.5818 33.6427 16.7184 33.0017 16.0812C32.3606 15.444 31.4903 15.0851 30.5822 15.0836L20.31 15.0661C19.4019 15.0646 18.5303 15.4205 17.8871 16.0555C17.2439 16.6905 16.8817 17.5527 16.8801 18.4523L16.8744 21.8442L20.2984 21.85L20.2999 21.0021C20.3003 20.7772 20.3908 20.5616 20.5516 20.4029C20.7124 20.2441 20.9303 20.1551 21.1573 20.1555L23.7254 20.1599C23.9524 20.1603 24.17 20.25 24.3303 20.4093C24.4905 20.5686 24.5803 20.7844 24.58 21.0093L24.5785 21.8573Z" fill="white"/>
<path d="M17.7276 23.5417C16.5925 23.5398 15.5032 23.9846 14.6992 24.7784C13.8952 25.5722 13.4424 26.6499 13.4405 27.7744L13.429 34.5583C13.4286 34.7832 13.5184 34.999 13.6787 35.1583C13.8389 35.3176 14.0565 35.4074 14.2835 35.4077C14.5105 35.4081 14.7284 35.3192 14.8892 35.1604C15.05 35.0016 15.1405 34.7861 15.1409 34.5612L15.1481 30.3213L35.6917 30.3562L35.6845 34.5962C35.6841 34.8211 35.7739 35.0369 35.9342 35.1962C36.0944 35.3555 36.312 35.4452 36.539 35.4456C36.766 35.446 36.9839 35.357 37.1447 35.1983C37.3055 35.0395 37.396 34.824 37.3964 34.5991L37.408 27.8151C37.4099 26.6906 36.9608 25.6114 36.1595 24.8149C35.3582 24.0184 34.2704 23.5698 33.1353 23.5679L17.7276 23.5417Z" fill="white"/>
</svg>
