<svg width="132" height="26" viewBox="0 0 132 26" fill="none" xmlns="http://www.w3.org/2000/svg">
<g clip-path="url(#clip0_1038_1489)">
<path d="M98.0261 6.64704C99.0452 6.64877 99.9701 6.77997 100.801 7.04062C101.632 7.30127 102.333 7.63768 102.905 8.04985C103.262 8.30076 103.543 8.57835 103.748 8.88263C103.953 9.18692 104.055 9.58041 104.054 10.0631L104.038 19.4493L104.033 19.7045C104.002 20.5444 103.824 21.277 103.498 21.9022C103.139 22.5899 102.651 23.1611 102.033 23.616C101.416 24.0708 100.691 24.4048 99.8594 24.618C99.0276 24.8311 98.138 24.9368 97.1905 24.9352C95.5635 24.9325 94.2856 24.7113 93.3567 24.2717C92.4277 23.8321 91.9641 23.1206 91.9658 22.1373C91.9665 21.7261 92.052 21.3642 92.2224 21.0516C92.3928 20.739 92.5854 20.5025 92.8002 20.3419C93.3182 20.6289 93.9033 20.8712 94.5555 21.069C95.2077 21.2668 95.8825 21.3663 96.5797 21.3674C97.5452 21.3691 98.3142 21.2095 98.8868 20.8887C99.4595 20.5678 99.7464 20.0498 99.7477 19.3347L99.7484 18.9056L99.5444 18.989C98.8509 19.2538 98.0248 19.3854 97.0658 19.3838C96.2613 19.3824 95.4972 19.2604 94.7735 19.0178C94.0499 18.7752 93.4158 18.3987 92.8714 17.8883C92.327 17.3778 91.8901 16.72 91.5607 15.9149C91.2313 15.1098 91.0676 14.1531 91.0695 13.0446C91.0713 11.954 91.2472 11.0068 91.5972 10.2028C91.9472 9.39891 92.4311 8.73377 93.0488 8.2074C93.6665 7.68104 94.4002 7.28896 95.2498 7.03117C96.0995 6.77338 97.0249 6.64534 98.0261 6.64704ZM25.8401 6.94057C27.4345 6.94328 28.7385 7.30326 29.7522 8.0205C30.766 8.73774 31.3646 10.0026 31.5482 11.815L28.1417 11.8092L28.1094 11.6087C28.033 11.2134 27.885 10.8522 27.6656 10.5251C27.2932 10.0112 26.7142 9.75357 25.9287 9.75224C24.8087 9.75033 24.0417 10.3051 23.6276 11.4166C23.4089 12.0073 23.2986 12.7926 23.297 13.7725C23.2954 14.7058 23.403 15.4565 23.6198 16.0246C24.0146 17.083 24.7604 17.6132 25.857 17.615C26.6347 17.6163 27.1873 17.4073 27.5146 16.9879C27.842 16.5685 28.0412 16.0244 28.1124 15.3556L31.5072 15.3614L31.4837 15.5937C31.3695 16.5191 31.0101 17.3976 30.4057 18.2294C29.361 19.682 27.816 20.4065 25.7706 20.4031C23.7251 20.3996 22.2212 19.7904 21.2589 18.5755C20.2966 17.3606 19.8171 15.7848 19.8204 13.8483C19.8241 11.6629 20.3597 9.96442 21.4273 8.75297C22.4948 7.54151 23.9658 6.93738 25.8401 6.94057ZM56.7371 6.95813C57.7948 6.95993 58.7472 7.15987 59.5943 7.55796C60.4413 7.95604 61.1402 8.58331 61.6909 9.43975C62.1874 10.195 62.5087 11.0705 62.6548 12.0663C62.7393 12.6497 62.7729 13.4897 62.7555 14.5863L54.0526 14.5715L54.0642 14.7926C54.1453 15.951 54.5405 16.7724 55.2497 17.2567C55.708 17.5764 56.2599 17.7367 56.9054 17.7378C57.5898 17.739 58.1462 17.5455 58.5747 17.1574C58.8083 16.9478 59.0149 16.6565 59.1944 16.2835L62.5893 16.2892L62.5638 16.4635C62.44 17.1613 62.0544 17.8686 61.4071 18.5854C60.3161 19.8202 58.7907 20.4359 56.8308 20.4326C55.2132 20.4298 53.7869 19.9063 52.5521 18.862C51.3173 17.8178 50.7018 16.1213 50.7058 13.7725C50.7096 11.5715 51.2705 9.88478 52.3885 8.7123C53.5066 7.53982 54.9561 6.9551 56.7371 6.95813ZM80.09 2.32571C80.4834 2.32638 80.8364 2.3538 81.1492 2.40797C81.462 2.46213 81.7255 2.56985 81.9398 2.73112C82.154 2.89239 82.319 3.11168 82.4348 3.389C82.5505 3.66631 82.608 4.02844 82.6072 4.4754L82.5808 20.0296L82.4907 20.0456C82.2991 20.0792 82.0385 20.1225 81.709 20.1756C81.3245 20.2375 80.9356 20.2681 80.5422 20.2675C80.1489 20.2668 79.7959 20.2394 79.4831 20.1852C79.1703 20.131 78.9068 20.0233 78.6925 19.862C78.4782 19.7008 78.3132 19.4815 78.1975 19.2042C78.0818 18.9269 78.0243 18.5647 78.025 18.1178L78.0515 2.5636L78.1416 2.54761C78.3332 2.51401 78.5937 2.47066 78.9233 2.41759C79.3078 2.35567 79.6967 2.32504 80.09 2.32571ZM86.9352 6.9768C87.3286 6.97747 87.6816 7.00489 87.9944 7.05906C88.3072 7.11322 88.5707 7.22094 88.785 7.38221C88.9992 7.54348 89.1642 7.76277 89.28 8.04009C89.3957 8.3174 89.4532 8.67953 89.4524 9.12649L89.4339 20.0412L89.3438 20.0572C89.1522 20.0908 88.8916 20.1342 88.5621 20.1872C88.1776 20.2492 87.7887 20.2798 87.3953 20.2791C87.002 20.2784 86.649 20.251 86.3362 20.1969C86.0234 20.1427 85.7599 20.035 85.5456 19.8737C85.3313 19.7124 85.1663 19.4931 85.0506 19.2158C84.9349 18.9385 84.8774 18.5764 84.8781 18.1294L84.8967 7.21469L84.9868 7.1987C85.1784 7.1651 85.439 7.12175 85.7685 7.06868C86.153 7.00676 86.5419 6.97613 86.9352 6.9768ZM108.292 2.37369C108.686 2.37435 109.039 2.40177 109.351 2.45594C109.664 2.51011 109.928 2.61783 110.142 2.7791C110.356 2.94037 110.521 3.15966 110.637 3.43697C110.753 3.71428 110.81 4.07642 110.81 4.52338L110.805 7.15149L110.898 7.1175C111.128 7.03674 111.45 6.94587 111.865 6.84489C112.339 6.72949 112.862 6.67228 113.434 6.67325C115.204 6.67626 116.584 7.1211 117.575 8.00776C118.566 8.89443 119.06 10.2138 119.057 11.9659L119.043 20.0916L118.96 20.1144C118.781 20.1601 118.527 20.2056 118.198 20.2511C117.813 20.304 117.416 20.3302 117.004 20.3295C116.611 20.3288 116.258 20.3014 115.945 20.2472C115.632 20.1931 115.369 20.0853 115.155 19.9241C114.94 19.7628 114.775 19.5435 114.66 19.2662C114.544 18.9889 114.486 18.6268 114.487 18.1798L114.497 12.2263L114.494 12.061C114.469 11.4155 114.288 10.9562 113.95 10.6834C113.584 10.3877 113.133 10.2395 112.597 10.2386C112.239 10.238 111.899 10.2821 111.577 10.3709C111.255 10.4598 110.996 10.5666 110.799 10.6914L110.783 20.0775L110.7 20.1004C110.522 20.1461 110.268 20.1916 109.938 20.237C109.554 20.29 109.156 20.3161 108.745 20.3154C108.351 20.3148 107.998 20.2873 107.685 20.2332C107.373 20.179 107.109 20.0713 106.895 19.91C106.681 19.7488 106.516 19.5295 106.4 19.2521C106.284 18.9748 106.227 18.6127 106.227 18.1657L106.254 2.61158L106.344 2.59558C106.535 2.56198 106.796 2.51864 107.126 2.46556C107.51 2.40364 107.899 2.37302 108.292 2.37369ZM76.1844 3.79404L76.2456 3.89806C76.3459 4.08074 76.4368 4.30996 76.5182 4.58573C76.616 4.91664 76.6646 5.26088 76.664 5.61845C76.6628 6.31571 76.5144 6.81158 76.219 7.10607C75.9235 7.40056 75.5254 7.54738 75.0248 7.54653L69.3931 7.53695L69.388 10.5673L75.261 10.5773L75.3305 10.681C75.4432 10.8624 75.5403 11.0873 75.6217 11.3556C75.7195 11.6776 75.7681 12.0174 75.7675 12.375C75.7663 13.0543 75.618 13.5413 75.3225 13.8358C75.027 14.1303 74.629 14.2771 74.1284 14.2762L69.4353 14.2682L69.4257 19.9267L69.3345 19.9496C69.1385 19.9952 68.8604 20.0407 68.5002 20.0861C68.08 20.139 67.6643 20.1651 67.2531 20.1644C66.8419 20.1637 66.4799 20.1318 66.1671 20.0687C65.8544 20.0056 65.5908 19.8934 65.3766 19.7321C65.1623 19.5709 65.0018 19.3471 64.895 19.0609C64.7882 18.7746 64.7352 18.3991 64.736 17.9343L64.7558 6.26863L64.7608 6.0798C64.7961 5.39974 65.019 4.8552 65.4294 4.44618C65.8771 3.99998 66.4854 3.77754 67.2541 3.77885L76.1844 3.79404ZM13.1549 2.76588L13.1498 5.78738L4.5286 5.77271L4.52187 9.72749L12.0698 9.74033L12.0647 12.7268L4.51679 12.714L4.50453 19.9236L0.934729 19.9175L0.96394 2.74514L13.1549 2.76588ZM18.0177 7.23058L17.9961 19.9465L14.6246 19.9408L14.6462 7.22485L18.0177 7.23058ZM36.3989 2.84042L36.3831 12.1032L40.5327 7.32721L44.6508 7.33421L40.1978 12.1914L44.8042 19.9921L40.7911 19.9853L37.7556 14.5438L36.3765 15.9763L36.3697 19.9778L33.1032 19.9722L33.1324 2.83486L36.3989 2.84042ZM49.1672 2.80381L49.138 19.9995L45.8132 19.9938L45.8424 2.79815L49.1672 2.80381ZM119.319 3.75713C119.877 3.59048 120.828 3.55482 121.94 4.04913C123.064 4.54814 123.763 5.40197 124.039 6.61062L130.072 7.13371C130.147 7.13817 130.221 7.15344 130.295 7.1795C130.406 7.21861 130.465 7.27346 130.515 7.3164C130.638 7.42169 130.677 7.50278 130.735 7.64797C130.839 7.90614 130.807 8.20974 130.671 8.41772C130.453 8.75303 130.111 8.96964 129.647 9.06755L124.774 10.0947L125.627 14.1415C125.725 14.6061 125.942 14.9055 126.278 15.0399C126.614 15.1743 127.05 15.185 127.586 15.072C127.854 15.0156 128.126 14.9348 128.403 14.8299C128.679 14.725 128.917 14.6142 129.117 14.4976C129.319 14.6602 129.503 14.8499 129.67 15.0666C129.837 15.2833 129.957 15.5614 130.028 15.9009C130.293 17.1558 128.316 18.3376 127.021 18.568C125.823 18.7814 123.983 18.9572 122.936 16.2009C121.89 13.4447 120.246 8.82474 118.992 4.97485C118.884 4.64262 118.817 4.31637 118.934 4.04745C118.998 3.9021 119.044 3.83939 119.319 3.75713ZM98.2346 10.2141C97.3585 10.2126 96.7011 10.4574 96.2622 10.9483C95.8234 11.4392 95.6032 12.1405 95.6016 13.0523C95.5999 14.0893 95.8176 14.8361 96.2548 15.2927C96.6921 15.7493 97.2504 15.9782 97.9298 15.9794C98.6628 15.9806 99.2441 15.8118 99.6738 15.4728L99.6822 10.5384L99.6002 10.4954C99.4816 10.4379 99.3258 10.3805 99.1328 10.3229C98.8915 10.251 98.5921 10.2147 98.2346 10.2141ZM56.7324 9.69964C55.9625 9.69833 55.3652 9.93841 54.9405 10.4199C54.5158 10.9014 54.2483 11.5542 54.138 12.3784L59.3061 12.3872C59.2531 11.5083 58.9879 10.8409 58.5103 10.3851C58.0328 9.92934 57.4402 9.70084 56.7324 9.69964ZM18.0255 2.64584L18.0203 5.714L14.6488 5.70827L14.654 2.64011L18.0255 2.64584ZM87.1868 0.996905C87.9377 0.998182 88.5407 1.23163 88.9958 1.69724C89.4509 2.16285 89.6778 2.73535 89.6767 3.41472C89.6755 4.0941 89.4466 4.66582 88.9899 5.12988C88.5332 5.59394 87.9295 5.82534 87.1786 5.82406C86.4277 5.82278 85.8247 5.58934 85.3696 5.12372C84.9145 4.65811 84.6875 4.08562 84.6886 3.40624C84.6898 2.72686 84.9187 2.15514 85.3754 1.69108C85.8321 1.22702 86.4359 0.995627 87.1868 0.996905Z" fill="white"/>
</g>
<defs>
<clipPath id="clip0_1038_1489">
<rect width="130.072" height="24.6688" fill="white" transform="translate(0.967834 0.457542) rotate(0.0974616)"/>
</clipPath>
</defs>
</svg>
