<svg width="19" height="19" viewBox="0 0 19 19" fill="none" xmlns="http://www.w3.org/2000/svg">
<path d="M16.9506 14.0327C16.4708 13.6034 16.0509 13.1116 15.7022 12.5703C15.3219 11.8234 15.0945 11.0081 15.0335 10.1721L15.0377 7.7102C15.0432 6.39734 14.5692 5.12764 13.7045 4.13966C12.8399 3.15168 11.6443 2.51344 10.3423 2.34484L10.3434 1.70196C10.3437 1.52551 10.2739 1.35616 10.1493 1.23118C10.0248 1.1062 9.85567 1.03582 9.67922 1.03552C9.50277 1.03522 9.33342 1.10502 9.20844 1.22958C9.08346 1.35414 9.01308 1.52324 9.01278 1.69969L9.01167 2.35254C7.72074 2.52873 6.5374 3.16677 5.68082 4.1485C4.82425 5.13024 4.35247 6.38914 4.35288 7.69203L4.34869 10.1539C4.28485 10.9897 4.05473 11.8043 3.67183 12.5499C3.32749 13.0887 2.91267 13.5791 2.4384 14.008C2.38516 14.0546 2.34246 14.112 2.31313 14.1764C2.28381 14.2408 2.26853 14.3107 2.26832 14.3815L2.26717 15.0592C2.26695 15.1914 2.31924 15.3183 2.41254 15.4119C2.50584 15.5055 2.63251 15.5582 2.76468 15.5584L16.6191 15.582C16.7512 15.5822 16.8781 15.5299 16.9717 15.4366C17.0653 15.3433 17.118 15.2167 17.1183 15.0845L17.1194 14.4067C17.1195 14.336 17.1044 14.266 17.0753 14.2015C17.0462 14.137 17.0037 14.0795 16.9506 14.0327ZM3.3046 14.5626C3.76904 14.1155 4.17815 13.6142 4.52314 13.0696C5.0054 12.1691 5.28758 11.1752 5.3504 10.1556L5.35458 7.69373C5.33581 7.10964 5.43477 6.52774 5.64557 5.98269C5.85637 5.43764 6.17469 4.94058 6.58158 4.52111C6.98848 4.10165 7.47562 3.76835 8.01401 3.54107C8.5524 3.31379 9.13102 3.19717 9.71541 3.19817C10.2998 3.19916 10.878 3.31774 11.4156 3.54685C11.9532 3.77597 12.4392 4.11092 12.8447 4.53177C13.2502 4.95262 13.5668 5.45076 13.7758 5.99652C13.9847 6.54229 14.0817 7.12452 14.0609 7.70854L14.0567 10.1704C14.1161 11.1902 14.3949 12.1851 14.8741 13.0872C15.2172 13.633 15.6246 14.1357 16.0875 14.5844L3.3046 14.5626Z" fill="#424242"/>
<path d="M9.71413 17.2052C10.0281 17.1985 10.3295 17.081 10.5652 16.8734C10.8009 16.6659 10.9555 16.3817 11.0018 16.0711L8.38046 16.0667C8.427 16.3858 8.5879 16.6772 8.83323 16.8867C9.07855 17.0961 9.3916 17.2093 9.71413 17.2052Z" fill="#424242"/>
<circle cx="14.5627" cy="4.22397" r="2.61639" transform="rotate(0.0974616 14.5627 4.22397)" fill="#F99A0E" stroke="white" stroke-width="0.74754"/>
</svg>
