<svg width="98" height="23" viewBox="0 0 98 23" fill="none" xmlns="http://www.w3.org/2000/svg">
<g clip-path="url(#clip0_1038_1495)">
<path d="M12.0329 0.525116C6.08769 0.515003 1.26011 5.32619 1.25 11.2714C1.23989 17.2165 6.05107 22.0441 11.9962 22.0542C17.9414 22.0643 22.769 17.2532 22.7791 11.308C22.7892 5.36281 17.978 0.535229 12.0329 0.525116ZM14.5701 7.96821L12.952 7.96546C12.7603 7.96513 12.5468 8.21706 12.5462 8.55233L12.5442 9.72074L14.5682 9.72418L14.2593 11.3899L12.5414 11.387L12.5329 16.3892L10.6233 16.3859L10.6318 11.3838L8.8994 11.3808L8.90223 9.71454L10.6347 9.71749L10.6363 8.73746C10.6387 7.33135 11.6162 6.19039 12.955 6.19267L14.5731 6.19542L14.5701 7.96821Z" fill="white"/>
</g>
<g clip-path="url(#clip1_1038_1495)">
<path d="M86.7867 0.652237C80.8416 0.642124 76.014 5.45331 76.0039 11.3985C75.9938 17.3437 80.8049 22.1712 86.7501 22.1813C92.6953 22.1915 97.5229 17.3803 97.533 11.4351C97.5431 5.48993 92.7319 0.66235 86.7867 0.652237ZM91.1505 9.47765C91.1548 9.5696 91.1557 9.66156 91.1556 9.75126C91.1508 12.5545 89.0137 15.7814 85.1138 15.7748C83.9614 15.7747 82.8336 15.4418 81.8659 14.8161C82.0307 14.8366 82.2 14.8447 82.3715 14.845C83.365 14.8467 84.2795 14.5107 85.0059 13.9424C84.5638 13.9329 84.1357 13.7858 83.7812 13.5215C83.4267 13.2572 83.1634 12.8888 83.0282 12.4678C83.3456 12.5287 83.6727 12.5166 83.9847 12.4324C83.505 12.3346 83.0739 12.0738 82.7646 11.6944C82.4552 11.315 82.2865 10.8402 82.2872 10.3507L82.2873 10.3249C82.573 10.4835 82.9002 10.5804 83.2478 10.5922C82.7984 10.292 82.4808 9.83144 82.3597 9.30474C82.2387 8.77804 82.3234 8.22499 82.5966 7.75871C83.1281 8.41446 83.7914 8.95129 84.5434 9.33445C85.2955 9.7176 86.1197 9.93854 86.9626 9.98297C86.8562 9.52788 86.9032 9.05039 87.0961 8.62473C87.2891 8.19907 87.6173 7.84909 88.0297 7.6292C88.4421 7.40931 88.9156 7.33183 89.3766 7.40881C89.8375 7.48579 90.2602 7.7129 90.5788 8.05485C91.0534 7.96178 91.5088 7.7885 91.9252 7.54246C91.7662 8.03348 91.4344 8.45009 90.9914 8.71489C91.4118 8.66498 91.8224 8.55268 92.2097 8.38169C91.9247 8.80718 91.566 9.17834 91.1505 9.47765Z" fill="white"/>
</g>
<g clip-path="url(#clip2_1038_1495)">
<path d="M52.7554 11.3589C52.7539 12.2511 52.398 13.1061 51.7661 13.7359C51.1341 14.3657 50.2779 14.7187 49.3857 14.7171C48.4936 14.7156 47.6385 14.3597 47.0087 13.7278C46.379 13.0959 46.026 12.2397 46.0275 11.3475C46.0279 11.1557 46.0484 10.9685 46.0834 10.7869L44.9072 10.7849L44.8995 15.2668C44.899 15.5785 45.1509 15.8312 45.4626 15.8318L53.3062 15.8451C53.4555 15.8451 53.5988 15.7858 53.7045 15.6802C53.8102 15.5746 53.8698 15.4314 53.87 15.2821L53.8776 10.8002L52.7014 10.7982C52.7358 10.9799 52.7557 11.1672 52.7554 11.3589ZM49.3876 13.5958C49.6822 13.5963 49.974 13.5387 50.2463 13.4263C50.5186 13.314 50.7662 13.1491 50.9748 12.9411C51.1834 12.7331 51.3489 12.4861 51.4621 12.2141C51.5752 11.9421 51.6336 11.6505 51.6341 11.3559C51.6345 11.0613 51.5769 10.7695 51.4646 10.4972C51.3522 10.2249 51.1874 9.97738 50.9794 9.76878C50.7714 9.56018 50.5243 9.39459 50.2523 9.28147C49.9803 9.16834 49.6887 9.1099 49.3941 9.10947C48.7992 9.10861 48.2283 9.34411 47.807 9.76418C47.3857 10.1842 47.1486 10.7545 47.1477 11.3494C47.1468 11.9443 47.3824 12.5152 47.8024 12.9365C48.2225 13.3578 48.7927 13.595 49.3876 13.5958ZM52.0866 9.00304L53.431 9.00533C53.5204 9.00548 53.6061 8.97022 53.6695 8.90727C53.7328 8.84433 53.7687 8.75883 53.7691 8.66951L53.7714 7.32506C53.7716 7.23555 53.7362 7.14964 53.673 7.08623C53.6098 7.02283 53.524 6.98712 53.4345 6.98697L52.09 6.98469C52.0005 6.98453 51.9146 7.01995 51.8512 7.08314C51.7878 7.14632 51.7521 7.23211 51.7519 7.32163L51.7497 8.66607C51.7505 8.85109 51.9016 9.00273 52.0866 9.00304ZM49.4098 0.588654C46.5548 0.583798 43.8149 1.71326 41.7927 3.72857C39.7705 5.74388 38.6317 8.47996 38.6269 11.3349C38.622 14.1898 39.7515 16.9298 41.7668 18.952C43.7821 20.9741 46.5182 22.1129 49.3731 22.1178C50.7868 22.1202 52.187 21.8441 53.4939 21.3054C54.8009 20.7666 55.9889 19.9757 56.9902 18.9778C57.9915 17.98 58.7864 16.7946 59.3296 15.4895C59.8728 14.1844 60.1536 12.7851 60.156 11.3715C60.1584 9.9579 59.8824 8.55764 59.3436 7.25071C58.8049 5.94377 58.014 4.75575 57.0161 3.75447C56.0182 2.75318 54.8329 1.95826 53.5278 1.41506C52.2227 0.871873 50.8234 0.591058 49.4098 0.588654ZM54.9906 15.7235C54.9894 16.4086 54.4278 16.9683 53.7427 16.9672L45.0211 16.9523C44.336 16.9512 43.7763 16.3896 43.7775 15.7044L43.7923 6.98291C43.7935 6.29779 44.3551 5.73809 45.0402 5.73925L53.7618 5.75409C54.4469 5.75525 55.0066 6.31686 55.0054 7.00198L54.9906 15.7235Z" fill="white"/>
</g>
<defs>
<clipPath id="clip0_1038_1495">
<rect width="22.4262" height="22.4262" fill="white" transform="translate(0.820496 0.0573273) rotate(0.0974616)"/>
</clipPath>
<clipPath id="clip1_1038_1495">
<rect width="22.4262" height="22.4262" fill="white" transform="translate(75.5743 0.184448) rotate(0.0974616)"/>
</clipPath>
<clipPath id="clip2_1038_1495">
<rect width="22.4262" height="22.4262" fill="white" transform="translate(38.1974 0.120865) rotate(0.0974616)"/>
</clipPath>
</defs>
</svg>
