<svg width="14" height="14" viewBox="0 0 14 14" fill="none" xmlns="http://www.w3.org/2000/svg">
<path d="M12.6274 5.01311L8.89859 4.42053L7.23748 0.762053C7.19211 0.661887 7.11733 0.580735 7.02486 0.531327C6.79297 0.407012 6.51074 0.509799 6.39427 0.760619L4.72072 4.41342L0.989894 4.99332C0.887036 5.00903 0.79293 5.0613 0.720814 5.14061C0.633627 5.23719 0.585453 5.36725 0.586876 5.5022C0.588299 5.63715 0.639203 5.76596 0.728403 5.86031L3.42214 8.7103L2.77776 12.7271C2.76265 12.8205 2.77205 12.9167 2.80489 13.0046C2.83773 13.0925 2.89271 13.1688 2.96357 13.2246C3.03444 13.2805 3.11837 13.3138 3.20584 13.3207C3.29332 13.3275 3.38083 13.3078 3.45847 13.2636L6.79782 11.3724L10.1307 13.275C10.2217 13.3276 10.3275 13.3452 10.4289 13.3263C10.6845 13.2791 10.8569 13.0173 10.8133 12.7408L10.1825 8.7218L12.886 5.88099C12.9595 5.80327 13.0082 5.70168 13.0231 5.59049C13.0632 5.31253 12.8844 5.05486 12.6274 5.01311V5.01311Z" fill="#FDBF00"/>
</svg>
