<svg width="14" height="14" viewBox="0 0 14 14" fill="none" xmlns="http://www.w3.org/2000/svg">
<path d="M12.8398 5.42003L9.11097 4.82745L7.44986 1.16897C7.40449 1.06881 7.32971 0.987656 7.23724 0.938248C7.00535 0.813934 6.72312 0.91672 6.60664 1.16754L4.93309 4.82035L1.20227 5.40024C1.09941 5.41595 1.0053 5.46822 0.933185 5.54753C0.845999 5.64411 0.797825 5.77417 0.799248 5.90912C0.800671 6.04407 0.851575 6.17288 0.940775 6.26724L3.63452 9.11722L2.99013 13.134C2.97502 13.2274 2.98442 13.3236 3.01726 13.4115C3.05011 13.4995 3.10508 13.5757 3.17595 13.6316C3.24682 13.6874 3.33075 13.7207 3.41822 13.7276C3.50569 13.7345 3.59321 13.7147 3.67084 13.6706L7.0102 11.7793L10.3431 13.6819C10.4341 13.7345 10.5398 13.7521 10.6412 13.7333C10.8969 13.686 11.0692 13.4242 11.0256 13.1477L10.3949 9.12872L13.0983 6.28792C13.1719 6.21019 13.2206 6.1086 13.2355 5.99741C13.2756 5.71945 13.0968 5.46178 12.8398 5.42003V5.42003Z" fill="#FDBF00"/>
</svg>
