<svg width="13" height="14" viewBox="0 0 13 14" fill="none" xmlns="http://www.w3.org/2000/svg">
<path d="M12.075 4.82696L8.33897 4.23437L6.67465 0.575887C6.62919 0.475721 6.55426 0.394568 6.46162 0.34516C6.22928 0.220845 5.94651 0.323631 5.82981 0.57445L4.15306 4.22725L0.415061 4.80713C0.312005 4.82284 0.217718 4.87511 0.145463 4.95442C0.0581089 5.05101 0.00984234 5.18106 0.0112687 5.31601C0.012695 5.45096 0.0636976 5.57977 0.153069 5.67413L2.852 8.52412L2.20638 12.5409C2.19125 12.6343 2.20066 12.7305 2.23357 12.8184C2.26648 12.9064 2.32156 12.9826 2.39256 13.0384C2.46357 13.0943 2.54766 13.1276 2.6353 13.1345C2.72294 13.1414 2.81062 13.1216 2.88841 13.0775L6.23418 11.1862L9.5735 13.0888C9.66466 13.1414 9.77061 13.1591 9.87219 13.1402C10.1284 13.093 10.301 12.8311 10.2573 12.5546L9.6254 8.53564L12.334 5.69485C12.4077 5.61712 12.4565 5.51553 12.4714 5.40434C12.5116 5.12639 12.3325 4.86871 12.075 4.82696V4.82696Z" fill="#FDBF00"/>
</svg>
