<svg width="13" height="14" viewBox="0 0 13 14" fill="none" xmlns="http://www.w3.org/2000/svg">
<path d="M12.2644 5.23382L8.53558 4.64123L6.87447 0.982757C6.8291 0.88259 6.75432 0.801438 6.66186 0.75203C6.42996 0.627715 6.14774 0.730502 6.03126 0.981322L4.35772 4.63413L0.626902 5.21402C0.524044 5.22973 0.429938 5.282 0.357822 5.36131C0.270636 5.4579 0.222461 5.58795 0.223885 5.7229C0.225308 5.85785 0.276212 5.98666 0.365412 6.08102L3.05914 8.931L2.41476 12.9478C2.39965 13.0412 2.40905 13.1374 2.44189 13.2253C2.47474 13.3132 2.52971 13.3895 2.60058 13.4453C2.67145 13.5012 2.75538 13.5345 2.84285 13.5414C2.93032 13.5482 3.01783 13.5285 3.09547 13.4843L6.43482 11.5931L9.76771 13.4957C9.8587 13.5483 9.96444 13.5659 10.0658 13.547C10.3215 13.4998 10.4938 13.238 10.4502 12.9615L9.81953 8.9425L12.5229 6.1017C12.5965 6.02398 12.6452 5.92238 12.6601 5.81119C12.7002 5.53324 12.5214 5.27556 12.2644 5.23382V5.23382Z" fill="#FDBF00"/>
</svg>
