<svg width="20" height="19" viewBox="0 0 20 19" fill="none" xmlns="http://www.w3.org/2000/svg">
<g clip-path="url(#clip0_1038_1444)">
<path d="M9.82353 17.2219C7.78078 17.2184 5.82307 16.4036 4.38108 14.9567C2.93909 13.5098 2.13094 11.5493 2.13442 9.50655C2.13789 7.4638 2.9527 5.50609 4.39961 4.0641C5.84651 2.62211 7.80698 1.81396 9.84973 1.81744C11.8925 1.82091 13.8502 2.63573 15.2922 4.08263C16.7342 5.52953 17.5423 7.49 17.5388 9.53276C17.5354 11.5755 16.7206 13.5332 15.2737 14.9752C13.8268 16.4172 11.8663 17.2253 9.82353 17.2219ZM9.82166 18.3222C12.1562 18.3262 14.3968 17.4026 16.0504 15.7546C17.704 14.1066 18.6352 11.8692 18.6392 9.53463C18.6431 7.20005 17.7195 4.95952 16.0716 3.30591C14.4236 1.65231 12.1862 0.721093 9.85161 0.717122C7.51703 0.713151 5.27649 1.63675 3.62289 3.28474C1.96929 4.93272 1.03807 7.1701 1.0341 9.50468C1.03013 11.8393 1.95373 14.0798 3.60171 15.7334C5.2497 17.387 7.48708 18.3182 9.82166 18.3222V18.3222Z" fill="#1262AF"/>
<path d="M7.87804 5.77857C7.98193 5.7253 8.0985 5.70172 8.21493 5.71043C8.33136 5.71913 8.44313 5.75979 8.53793 5.82792L12.9747 9.00845C13.0569 9.06729 13.1238 9.1449 13.1699 9.23483C13.216 9.32476 13.24 9.4244 13.2398 9.52546C13.2396 9.62652 13.2153 9.72608 13.1689 9.81585C13.1225 9.90562 13.0553 9.983 12.9729 10.0416L8.52538 13.207C8.43037 13.2747 8.31852 13.315 8.20213 13.3233C8.08573 13.3316 7.9693 13.3077 7.86562 13.2541C7.76195 13.2005 7.67506 13.1194 7.61449 13.0197C7.55393 12.9199 7.52204 12.8054 7.52234 12.6887L7.53313 6.34278C7.53321 6.22612 7.56544 6.11173 7.62629 6.0122C7.68714 5.91266 7.77424 5.83183 7.87804 5.77857V5.77857Z" fill="#1262AF"/>
</g>
<defs>
<clipPath id="clip0_1038_1444">
<rect width="18.6885" height="18.6885" fill="white" transform="translate(0.508301 0.159546) rotate(0.0974616)"/>
</clipPath>
</defs>
</svg>
