<svg width="20" height="20" viewBox="0 0 20 20" fill="none" xmlns="http://www.w3.org/2000/svg">
<g clip-path="url(#clip0_1038_1398)">
<path d="M10.1865 18.0012C8.14378 17.9977 6.18607 17.1829 4.74408 15.736C3.3021 14.2891 2.49395 12.3286 2.49742 10.2858C2.5009 8.2431 3.31571 6.28539 4.76261 4.8434C6.20952 3.40141 8.16999 2.59326 10.2127 2.59674C12.2555 2.60021 14.2132 3.41502 15.6552 4.86193C17.0972 6.30883 17.9053 8.2693 17.9019 10.3121C17.8984 12.3548 17.0836 14.3125 15.6367 15.7545C14.1898 17.1965 12.2293 18.0046 10.1865 18.0012ZM10.1847 19.1015C12.5192 19.1055 14.7598 18.1819 16.4134 16.5339C18.067 14.8859 18.9982 12.6485 19.0022 10.3139C19.0061 7.97935 18.0825 5.73881 16.4346 4.08521C14.7866 2.43161 12.5492 1.50039 10.2146 1.49642C7.88003 1.49245 5.6395 2.41605 3.9859 4.06403C2.33229 5.71202 1.40108 7.9494 1.39711 10.284C1.39313 12.6186 2.31673 14.8591 3.96472 16.5127C5.61271 18.1663 7.85009 19.0975 10.1847 19.1015V19.1015Z" fill="#1262AF"/>
<path d="M8.24105 6.55787C8.34494 6.5046 8.46151 6.48102 8.57794 6.48972C8.69436 6.49843 8.80613 6.53909 8.90094 6.60722L13.3377 9.78774C13.4199 9.84659 13.4868 9.9242 13.5329 10.0141C13.579 10.1041 13.603 10.2037 13.6028 10.3048C13.6026 10.4058 13.5783 10.5054 13.5319 10.5951C13.4855 10.6849 13.4183 10.7623 13.3359 10.8209L8.88839 13.9863C8.79338 14.054 8.68153 14.0943 8.56513 14.1026C8.44874 14.1109 8.3323 14.0869 8.22863 14.0334C8.12496 13.9798 8.03807 13.8987 7.9775 13.799C7.91694 13.6992 7.88505 13.5847 7.88534 13.468L7.89614 7.12207C7.89621 7.00541 7.92845 6.89103 7.98929 6.79149C8.05014 6.69196 8.13725 6.61112 8.24105 6.55787V6.55787Z" fill="#1262AF"/>
</g>
<defs>
<clipPath id="clip0_1038_1398">
<rect width="18.6885" height="18.6885" fill="white" transform="translate(0.871307 0.938843) rotate(0.0974616)"/>
</clipPath>
</defs>
</svg>
